<svg width="39" height="64" viewBox="0 0 39 64" fill="none" xmlns="http://www.w3.org/2000/svg">
<g opacity="0.56" filter="url(#filter0_f_405_2232)">
<ellipse cx="19.5" cy="59.7222" rx="15.5" ry="1.5" fill="#858383"/>
</g>
<mask id="path-2-inside-1_405_2232" fill="white">
<path fill-rule="evenodd" clip-rule="evenodd" d="M35.0991 31.203L19.5 59.2222L3.90089 31.203C1.4515 27.9434 0 23.8912 0 19.4999C0 8.73039 8.73045 -5.34058e-05 19.5 -5.34058e-05C30.2696 -5.34058e-05 39 8.73039 39 19.4999C39 23.8912 37.5485 27.9434 35.0991 31.203Z"/>
</mask>
<path fill-rule="evenodd" clip-rule="evenodd" d="M35.0991 31.203L19.5 59.2222L3.90089 31.203C1.4515 27.9434 0 23.8912 0 19.4999C0 8.73039 8.73045 -5.34058e-05 19.5 -5.34058e-05C30.2696 -5.34058e-05 39 8.73039 39 19.4999C39 23.8912 37.5485 27.9434 35.0991 31.203Z" fill="white"/>
<path d="M19.5 59.2222L20.3737 59.7086L19.5 61.278L18.6263 59.7086L19.5 59.2222ZM35.0991 31.203L34.2254 30.7166L34.2586 30.6569L34.2997 30.6023L35.0991 31.203ZM3.90089 31.203L4.70033 30.6023L4.74137 30.6569L4.77461 30.7166L3.90089 31.203ZM18.6263 58.7357L34.2254 30.7166L35.9728 31.6894L20.3737 59.7086L18.6263 58.7357ZM4.77461 30.7166L20.3737 58.7357L18.6263 59.7086L3.02716 31.6895L4.77461 30.7166ZM1 19.4999C1 23.6671 2.37663 27.5099 4.70033 30.6023L3.10144 31.8038C0.526372 28.3769 -1 24.1152 -1 19.4999H1ZM19.5 0.999947C9.28273 0.999947 1 9.28268 1 19.4999H-1C-1 8.17811 8.17816 -1.00005 19.5 -1.00005V0.999947ZM38 19.4999C38 9.28268 29.7173 0.999947 19.5 0.999947V-1.00005C30.8218 -1.00005 40 8.17811 40 19.4999H38ZM34.2997 30.6023C36.6234 27.5099 38 23.6671 38 19.4999H40C40 24.1152 38.4736 28.3769 35.8986 31.8038L34.2997 30.6023Z" fill="#E7E7E7" mask="url(#path-2-inside-1_405_2232)"/>
<g clip-path="url(#clip0_405_2232)">
<path d="M21.25 26.75H12.25C11.4544 26.75 10.6913 26.4339 10.1287 25.8713C9.56607 25.3087 9.25 24.5456 9.25 23.75V22.25C9.25 21.4544 9.56607 20.6913 10.1287 20.1287C10.6913 19.5661 11.4544 19.25 12.25 19.25H19.9C20.412 19.2497 20.9154 19.1187 21.3625 18.8693C21.8097 18.6199 22.1857 18.2604 22.455 17.825C22.6331 17.5332 22.786 17.2268 22.912 16.909C23.0798 16.4927 23.3683 16.136 23.7403 15.8849C24.1124 15.6338 24.5511 15.4998 25 15.5C26.5 15.5 27.25 17.257 27.25 18.5C27.25 18.6989 27.329 18.8897 27.4697 19.0303C27.6103 19.171 27.8011 19.25 28 19.25H28.75C29.1478 19.25 29.5294 19.408 29.8107 19.6893C30.092 19.9706 30.25 20.3522 30.25 20.75C30.25 21.1478 30.092 21.5294 29.8107 21.8107C29.5294 22.092 29.1478 22.25 28.75 22.25H26.5L24.364 25.238C24.1016 25.6973 23.7225 26.0791 23.265 26.3446C22.8075 26.6102 22.288 26.75 21.759 26.75H21.25Z" stroke="#9465ED" stroke-width="1.5" stroke-linecap="round" stroke-linejoin="round"/>
<path d="M7.75 17C7.75 17 7.75 20.246 10.283 19.985Z" fill="#9465ED"/>
<path d="M7.75 17C7.75 17 7.75 20.246 10.283 19.985" stroke="#9465ED" stroke-width="1.5" stroke-linecap="round" stroke-linejoin="round"/>
<path d="M21.25 26.75V31.25" stroke="#9465ED" stroke-width="1.5" stroke-linecap="round" stroke-linejoin="round"/>
<path d="M24.25 31.25L23.522 26.177" stroke="#9465ED" stroke-width="1.5" stroke-linecap="round" stroke-linejoin="round"/>
<path d="M10.75 26.3491V31.2501" stroke="#9465ED" stroke-width="1.5" stroke-linecap="round" stroke-linejoin="round"/>
<path d="M13.75 26.75V31.25" stroke="#9465ED" stroke-width="1.5" stroke-linecap="round" stroke-linejoin="round"/>
<path d="M25.488 23.666L21.105 18.996L15.25 8.75" stroke="#9465ED" stroke-width="1.5" stroke-linecap="round" stroke-linejoin="round"/>
</g>
<defs>
<filter id="filter0_f_405_2232" x="2" y="56.2222" width="35" height="7" filterUnits="userSpaceOnUse" color-interpolation-filters="sRGB">
<feFlood flood-opacity="0" result="BackgroundImageFix"/>
<feBlend mode="normal" in="SourceGraphic" in2="BackgroundImageFix" result="shape"/>
<feGaussianBlur stdDeviation="1" result="effect1_foregroundBlur_405_2232"/>
</filter>
<clipPath id="clip0_405_2232">
<rect width="24" height="24" fill="white" transform="translate(7 8)"/>
</clipPath>
</defs>
</svg>
