<svg width="39" height="64" viewBox="0 0 39 64" fill="none" xmlns="http://www.w3.org/2000/svg">
<g opacity="0.56" filter="url(#filter0_f_405_2348)">
<ellipse cx="19.5" cy="59.7222" rx="15.5" ry="1.5" fill="white"/>
</g>
<mask id="path-2-inside-1_405_2348" fill="white">
<path fill-rule="evenodd" clip-rule="evenodd" d="M35.0991 31.203L19.5 59.2222L3.90089 31.203C1.4515 27.9434 0 23.8912 0 19.4999C0 8.73039 8.73045 -5.34058e-05 19.5 -5.34058e-05C30.2696 -5.34058e-05 39 8.73039 39 19.4999C39 23.8912 37.5485 27.9434 35.0991 31.203Z"/>
</mask>
<path fill-rule="evenodd" clip-rule="evenodd" d="M35.0991 31.203L19.5 59.2222L3.90089 31.203C1.4515 27.9434 0 23.8912 0 19.4999C0 8.73039 8.73045 -5.34058e-05 19.5 -5.34058e-05C30.2696 -5.34058e-05 39 8.73039 39 19.4999C39 23.8912 37.5485 27.9434 35.0991 31.203Z" fill="#9465ED"/>
<path d="M19.5 59.2222L20.3737 59.7086L19.5 61.278L18.6263 59.7086L19.5 59.2222ZM35.0991 31.203L34.2254 30.7166L34.2586 30.6569L34.2997 30.6023L35.0991 31.203ZM3.90089 31.203L4.70033 30.6023L4.74137 30.6569L4.77461 30.7166L3.90089 31.203ZM18.6263 58.7357L34.2254 30.7166L35.9728 31.6894L20.3737 59.7086L18.6263 58.7357ZM4.77461 30.7166L20.3737 58.7357L18.6263 59.7086L3.02716 31.6895L4.77461 30.7166ZM1 19.4999C1 23.6671 2.37663 27.5099 4.70033 30.6023L3.10144 31.8038C0.526372 28.3769 -1 24.1152 -1 19.4999H1ZM19.5 0.999947C9.28273 0.999947 1 9.28268 1 19.4999H-1C-1 8.17811 8.17816 -1.00005 19.5 -1.00005V0.999947ZM38 19.4999C38 9.28268 29.7173 0.999947 19.5 0.999947V-1.00005C30.8218 -1.00005 40 8.17811 40 19.4999H38ZM34.2997 30.6023C36.6234 27.5099 38 23.6671 38 19.4999H40C40 24.1152 38.4736 28.3769 35.8986 31.8038L34.2997 30.6023Z" fill="#E7E7E7" mask="url(#path-2-inside-1_405_2348)"/>
<g clip-path="url(#clip0_405_2348)">
<path d="M18.8248 31.4277L18.8236 31.4264L16.2626 28.8654L16.2613 28.8642C16.0283 28.6328 15.7089 28.5 15.379 28.5H10.75C9.78514 28.5 9 27.7149 9 26.75V18.094V17.8064L8.75141 17.6618C7.98469 17.2158 7.5 16.3859 7.5 15.5C7.5 15.4834 7.50181 15.4657 7.50609 15.4465L7.50611 15.4464L8.87488 9.28344C8.87491 9.28328 8.87495 9.28313 8.87498 9.28298C8.97906 8.81997 9.37871 8.5 9.852 8.5H28.148C28.6114 8.5 29.0236 8.831 29.1239 9.28324L29.1239 9.2835L30.4939 15.4465L30.4939 15.4465L30.4953 15.4525C30.4977 15.4625 30.5 15.4789 30.5 15.5C30.5 16.3862 30.0151 17.2168 29.2489 17.6616L29 17.8061V18.094V26.75C29 27.7149 28.2149 28.5 27.25 28.5H22.621C22.2881 28.5 21.9737 28.6308 21.7387 28.8642L21.7374 28.8654L19.1764 31.4264L19.1752 31.4277C19.1289 31.4744 19.0679 31.5 19 31.5C18.9321 31.5 18.8711 31.4744 18.8248 31.4277ZM16.615 28.5121L16.6155 28.5126L18.6465 30.5426L19.0001 30.896L19.3536 30.5426L21.3846 28.5116C21.7159 28.1802 22.1537 27.999 22.621 27.999H27.25C27.9401 27.999 28.5 27.4391 28.5 26.749V23.749V23.249H28H10H9.5V23.749V26.75C9.5 27.4401 10.0599 28 10.75 28H15.379C15.8475 28 16.2851 28.1814 16.615 28.5121ZM28 22.75H28.5V22.25V18.5V18H28C27.2831 18 26.5964 17.6836 26.1243 17.1505L25.75 16.7278L25.3757 17.1505C24.9036 17.6836 24.2169 18 23.5 18C22.7831 18 22.0964 17.6836 21.6243 17.1505L21.25 16.7278L20.8757 17.1505C20.4036 17.6836 19.7169 18 19 18C18.2831 18 17.5964 17.6836 17.1243 17.1505L16.75 16.7278L16.3757 17.1505C15.9036 17.6836 15.2169 18 14.5 18C13.7831 18 13.0964 17.6836 12.6243 17.1505L12.25 16.7278L11.8757 17.1505C11.4036 17.6836 10.7169 18 10 18H9.5V18.5V22.25V22.75H10H28ZM29.9974 15.5987L30.0007 15.5313L29.9861 15.4655L29.498 15.574L29.9861 15.4654L29.986 15.4652L29.9858 15.4644L29.9851 15.4611L29.9822 15.4481L29.9709 15.3973L29.9281 15.2046L29.7751 14.5167L29.311 12.4291L28.8466 10.3409L28.6934 9.65229L28.6504 9.45901L28.639 9.40778L28.6359 9.39423L28.635 9.39009L28.6345 9.38774L28.6338 9.38481C28.6332 9.38247 28.6274 9.36041 28.6213 9.34089L28.5074 8.99898L28.147 8.999L9.85197 9L9.45092 9.00002L9.36391 9.39152L8.01391 15.4655L7.99928 15.5313L8.00261 15.5987C8.0547 16.6538 8.93631 17.5 10 17.5C11.1031 17.5 12 16.6031 12 15.5C12 15.3621 12.1121 15.25 12.25 15.25C12.3879 15.25 12.5 15.3621 12.5 15.5C12.5 16.6031 13.3969 17.5 14.5 17.5C15.6031 17.5 16.5 16.6031 16.5 15.5C16.5 15.3621 16.6121 15.25 16.75 15.25C16.8879 15.25 17 15.3621 17 15.5C17 16.6031 17.8969 17.5 19 17.5C20.1031 17.5 21 16.6031 21 15.5C21 15.3621 21.1121 15.25 21.25 15.25C21.3879 15.25 21.5 15.3621 21.5 15.5C21.5 16.6031 22.3969 17.5 23.5 17.5C24.6031 17.5 25.5 16.6031 25.5 15.5C25.5 15.3621 25.6121 15.25 25.75 15.25C25.8879 15.25 26 15.3621 26 15.5C26 16.6031 26.8969 17.5 28 17.5C29.0637 17.5 29.9453 16.6538 29.9974 15.5987Z" fill="black" stroke="white"/>
</g>
<defs>
<filter id="filter0_f_405_2348" x="2" y="56.2222" width="35" height="7" filterUnits="userSpaceOnUse" color-interpolation-filters="sRGB">
<feFlood flood-opacity="0" result="BackgroundImageFix"/>
<feBlend mode="normal" in="SourceGraphic" in2="BackgroundImageFix" result="shape"/>
<feGaussianBlur stdDeviation="1" result="effect1_foregroundBlur_405_2348"/>
</filter>
<clipPath id="clip0_405_2348">
<rect width="24" height="24" fill="white" transform="translate(7 8)"/>
</clipPath>
</defs>
</svg>
