<svg width="39" height="64" viewBox="0 0 39 64" fill="none" xmlns="http://www.w3.org/2000/svg">
<g opacity="0.56" filter="url(#filter0_f_405_2244)">
<ellipse cx="19.5" cy="59.7222" rx="15.5" ry="1.5" fill="#858383"/>
</g>
<mask id="path-2-inside-1_405_2244" fill="white">
<path fill-rule="evenodd" clip-rule="evenodd" d="M35.0991 31.203L19.5 59.2222L3.90089 31.203C1.4515 27.9434 0 23.8912 0 19.4999C0 8.73039 8.73045 -5.34058e-05 19.5 -5.34058e-05C30.2696 -5.34058e-05 39 8.73039 39 19.4999C39 23.8912 37.5485 27.9434 35.0991 31.203Z"/>
</mask>
<path fill-rule="evenodd" clip-rule="evenodd" d="M35.0991 31.203L19.5 59.2222L3.90089 31.203C1.4515 27.9434 0 23.8912 0 19.4999C0 8.73039 8.73045 -5.34058e-05 19.5 -5.34058e-05C30.2696 -5.34058e-05 39 8.73039 39 19.4999C39 23.8912 37.5485 27.9434 35.0991 31.203Z" fill="#9465ED"/>
<path d="M19.5 59.2222L20.3737 59.7086L19.5 61.278L18.6263 59.7086L19.5 59.2222ZM35.0991 31.203L34.2254 30.7166L34.2586 30.6569L34.2997 30.6023L35.0991 31.203ZM3.90089 31.203L4.70033 30.6023L4.74137 30.6569L4.77461 30.7166L3.90089 31.203ZM18.6263 58.7357L34.2254 30.7166L35.9728 31.6894L20.3737 59.7086L18.6263 58.7357ZM4.77461 30.7166L20.3737 58.7357L18.6263 59.7086L3.02716 31.6895L4.77461 30.7166ZM1 19.4999C1 23.6671 2.37663 27.5099 4.70033 30.6023L3.10144 31.8038C0.526372 28.3769 -1 24.1152 -1 19.4999H1ZM19.5 0.999947C9.28273 0.999947 1 9.28268 1 19.4999H-1C-1 8.17811 8.17816 -1.00005 19.5 -1.00005V0.999947ZM38 19.4999C38 9.28268 29.7173 0.999947 19.5 0.999947V-1.00005C30.8218 -1.00005 40 8.17811 40 19.4999H38ZM34.2997 30.6023C36.6234 27.5099 38 23.6671 38 19.4999H40C40 24.1152 38.4736 28.3769 35.8986 31.8038L34.2997 30.6023Z" fill="#9465ED" mask="url(#path-2-inside-1_405_2244)"/>
<g clip-path="url(#clip0_405_2244)">
<path d="M12.25 27.5C11.009 27.5 10 26.491 10 25.25V16.91L8.21901 18.335C8.08601 18.441 7.92001 18.5 7.75001 18.5C7.52101 18.5 7.30701 18.397 7.16401 18.219C7.03901 18.063 6.98201 17.867 7.00401 17.668C7.02601 17.469 7.12401 17.29 7.28101 17.165L18.531 8.165C18.664 8.058 18.83 8 19 8C19.17 8 19.336 8.058 19.469 8.165L26.512 13.799C26.668 13.924 26.767 14.103 26.789 14.302C26.811 14.501 26.754 14.697 26.629 14.853C26.486 15.032 26.273 15.134 26.043 15.134C25.873 15.134 25.707 15.076 25.575 14.97L19 9.71L11.5 15.71V25.25C11.5 25.663 11.836 26 12.25 26H15.25C15.663 26 16 26.336 16 26.75C16 27.164 15.663 27.5 15.25 27.5H12.25Z" fill="white"/>
<path d="M23.5 23.75C22.259 23.75 21.25 22.741 21.25 21.5C21.25 20.259 22.259 19.25 23.5 19.25C24.741 19.25 25.75 20.259 25.75 21.5C25.75 22.741 24.74 23.75 23.5 23.75ZM23.5 20.75C23.086 20.75 22.75 21.086 22.75 21.5C22.75 21.914 23.086 22.25 23.5 22.25C23.914 22.25 24.25 21.914 24.25 21.5C24.25 21.086 23.913 20.75 23.5 20.75Z" fill="white"/>
<path d="M18.25 26.75C17.009 26.75 16 25.741 16 24.5C16 23.259 17.009 22.25 18.25 22.25C19.491 22.25 20.5 23.259 20.5 24.5C20.5 25.741 19.49 26.75 18.25 26.75ZM18.25 23.75C17.836 23.75 17.5 24.086 17.5 24.5C17.5 24.914 17.836 25.25 18.25 25.25C18.664 25.25 19 24.913 19 24.5C19 24.087 18.663 23.75 18.25 23.75Z" fill="white"/>
<path d="M28.75 26.75C27.509 26.75 26.5 25.741 26.5 24.5C26.5 23.259 27.509 22.25 28.75 22.25C29.991 22.25 31 23.259 31 24.5C31 25.741 29.99 26.75 28.75 26.75ZM28.75 23.75C28.336 23.75 28 24.086 28 24.5C28 24.914 28.336 25.25 28.75 25.25C29.164 25.25 29.5 24.914 29.5 24.5C29.5 24.086 29.163 23.75 28.75 23.75Z" fill="white"/>
<path d="M20.501 32C20.099 32 19.725 31.846 19.443 31.567C19.158 31.286 19 30.91 18.998 30.51C18.996 30.183 19.104 29.858 19.302 29.597L22.3 25.6C22.54 25.279 22.891 25.072 23.288 25.015C23.359 25.005 23.431 25 23.503 25C23.828 25 24.138 25.104 24.4 25.3C24.514 25.386 24.615 25.487 24.7 25.6L27.7 29.6C27.94 29.921 28.041 30.316 27.985 30.712C27.928 31.109 27.72 31.459 27.4 31.7C27.141 31.894 26.821 32 26.5 32H20.501V32ZM20.5 30.5H26.5L23.501 26.501L20.5 30.5Z" fill="white"/>
</g>
<defs>
<filter id="filter0_f_405_2244" x="2" y="56.2222" width="35" height="7" filterUnits="userSpaceOnUse" color-interpolation-filters="sRGB">
<feFlood flood-opacity="0" result="BackgroundImageFix"/>
<feBlend mode="normal" in="SourceGraphic" in2="BackgroundImageFix" result="shape"/>
<feGaussianBlur stdDeviation="1" result="effect1_foregroundBlur_405_2244"/>
</filter>
<clipPath id="clip0_405_2244">
<rect width="24" height="24" fill="white" transform="translate(7 8)"/>
</clipPath>
</defs>
</svg>
