<svg width="39" height="64" viewBox="0 0 39 64" fill="none" xmlns="http://www.w3.org/2000/svg">
<g opacity="0.56" filter="url(#filter0_f_405_2256)">
<ellipse cx="19.5" cy="59.7222" rx="15.5" ry="1.5" fill="#858383"/>
</g>
<mask id="path-2-inside-1_405_2256" fill="white">
<path fill-rule="evenodd" clip-rule="evenodd" d="M35.0991 31.203L19.5 59.2222L3.90089 31.203C1.4515 27.9434 0 23.8912 0 19.4999C0 8.73039 8.73045 -5.34058e-05 19.5 -5.34058e-05C30.2696 -5.34058e-05 39 8.73039 39 19.4999C39 23.8912 37.5485 27.9434 35.0991 31.203Z"/>
</mask>
<path fill-rule="evenodd" clip-rule="evenodd" d="M35.0991 31.203L19.5 59.2222L3.90089 31.203C1.4515 27.9434 0 23.8912 0 19.4999C0 8.73039 8.73045 -5.34058e-05 19.5 -5.34058e-05C30.2696 -5.34058e-05 39 8.73039 39 19.4999C39 23.8912 37.5485 27.9434 35.0991 31.203Z" fill="#9465ED"/>
<path d="M19.5 59.2222L20.3737 59.7086L19.5 61.278L18.6263 59.7086L19.5 59.2222ZM35.0991 31.203L34.2254 30.7166L34.2586 30.6569L34.2997 30.6023L35.0991 31.203ZM3.90089 31.203L4.70033 30.6023L4.74137 30.6569L4.77461 30.7166L3.90089 31.203ZM18.6263 58.7357L34.2254 30.7166L35.9728 31.6894L20.3737 59.7086L18.6263 58.7357ZM4.77461 30.7166L20.3737 58.7357L18.6263 59.7086L3.02716 31.6895L4.77461 30.7166ZM1 19.4999C1 23.6671 2.37663 27.5099 4.70033 30.6023L3.10144 31.8038C0.526372 28.3769 -1 24.1152 -1 19.4999H1ZM19.5 0.999947C9.28273 0.999947 1 9.28268 1 19.4999H-1C-1 8.17811 8.17816 -1.00005 19.5 -1.00005V0.999947ZM38 19.4999C38 9.28268 29.7173 0.999947 19.5 0.999947V-1.00005C30.8218 -1.00005 40 8.17811 40 19.4999H38ZM34.2997 30.6023C36.6234 27.5099 38 23.6671 38 19.4999H40C40 24.1152 38.4736 28.3769 35.8986 31.8038L34.2997 30.6023Z" fill="#9465ED" mask="url(#path-2-inside-1_405_2256)"/>
<g clip-path="url(#clip0_405_2256)">
<path d="M27.625 10.25L29.5 9.125" stroke="white" stroke-width="1.5" stroke-linecap="round" stroke-linejoin="round"/>
<path d="M27.625 15.5L29.5 16.625" stroke="white" stroke-width="1.5" stroke-linecap="round" stroke-linejoin="round"/>
<path d="M27.625 12.875H29.875" stroke="white" stroke-width="1.5" stroke-linecap="round" stroke-linejoin="round"/>
<path d="M21.625 9.875H14.875C13.6815 9.875 12.5369 10.3491 11.693 11.193C10.8491 12.0369 10.375 13.1815 10.375 14.375H14.125V18.875H17.125V14.375H21.625V9.875Z" stroke="white" stroke-width="1.5" stroke-linecap="round" stroke-linejoin="round"/>
<path d="M17.125 14.375C17.125 14.375 19.375 18.125 22.375 18.125Z" fill="white"/>
<path d="M17.125 14.375C17.125 14.375 19.375 18.125 22.375 18.125" stroke="white" stroke-width="1.5" stroke-linecap="round" stroke-linejoin="round"/>
<path d="M18.625 21.875V20.375C18.625 19.9772 18.467 19.5956 18.1857 19.3143C17.9044 19.033 17.5228 18.875 17.125 18.875H14.125C13.7272 18.875 13.3456 19.033 13.0643 19.3143C12.783 19.5956 12.625 19.9772 12.625 20.375V21.875C10.375 21.875 8.125 23.375 8.125 27.875C8.125 28.6706 8.44107 29.4337 9.00368 29.9963C9.56629 30.5589 10.3294 30.875 11.125 30.875H20.125C20.9206 30.875 21.6837 30.5589 22.2463 29.9963C22.8089 29.4337 23.125 28.6706 23.125 27.875C23.125 23.375 20.875 21.875 18.625 21.875Z" stroke="white" stroke-width="1.5" stroke-linecap="round" stroke-linejoin="round"/>
<path d="M24.625 11.375V13.625" stroke="white" stroke-width="1.5" stroke-linecap="round" stroke-linejoin="round"/>
</g>
<defs>
<filter id="filter0_f_405_2256" x="2" y="56.2222" width="35" height="7" filterUnits="userSpaceOnUse" color-interpolation-filters="sRGB">
<feFlood flood-opacity="0" result="BackgroundImageFix"/>
<feBlend mode="normal" in="SourceGraphic" in2="BackgroundImageFix" result="shape"/>
<feGaussianBlur stdDeviation="1" result="effect1_foregroundBlur_405_2256"/>
</filter>
<clipPath id="clip0_405_2256">
<rect width="24" height="24" fill="white" transform="translate(7 8)"/>
</clipPath>
</defs>
</svg>
