<svg width="39" height="64" viewBox="0 0 39 64" fill="none" xmlns="http://www.w3.org/2000/svg">
<g opacity="0.56" filter="url(#filter0_f_405_2321)">
<ellipse cx="19.5" cy="59.7222" rx="15.5" ry="1.5" fill="#858383"/>
</g>
<mask id="path-2-inside-1_405_2321" fill="white">
<path fill-rule="evenodd" clip-rule="evenodd" d="M35.0991 31.203L19.5 59.2222L3.90089 31.203C1.4515 27.9434 0 23.8912 0 19.4999C0 8.73039 8.73045 -5.34058e-05 19.5 -5.34058e-05C30.2696 -5.34058e-05 39 8.73039 39 19.4999C39 23.8912 37.5485 27.9434 35.0991 31.203Z"/>
</mask>
<path fill-rule="evenodd" clip-rule="evenodd" d="M35.0991 31.203L19.5 59.2222L3.90089 31.203C1.4515 27.9434 0 23.8912 0 19.4999C0 8.73039 8.73045 -5.34058e-05 19.5 -5.34058e-05C30.2696 -5.34058e-05 39 8.73039 39 19.4999C39 23.8912 37.5485 27.9434 35.0991 31.203Z" fill="white"/>
<path d="M19.5 59.2222L20.3737 59.7086L19.5 61.278L18.6263 59.7086L19.5 59.2222ZM35.0991 31.203L34.2254 30.7166L34.2586 30.6569L34.2997 30.6023L35.0991 31.203ZM3.90089 31.203L4.70033 30.6023L4.74137 30.6569L4.77461 30.7166L3.90089 31.203ZM18.6263 58.7357L34.2254 30.7166L35.9728 31.6894L20.3737 59.7086L18.6263 58.7357ZM4.77461 30.7166L20.3737 58.7357L18.6263 59.7086L3.02716 31.6895L4.77461 30.7166ZM1 19.4999C1 23.6671 2.37663 27.5099 4.70033 30.6023L3.10144 31.8038C0.526372 28.3769 -1 24.1152 -1 19.4999H1ZM19.5 0.999947C9.28273 0.999947 1 9.28268 1 19.4999H-1C-1 8.17811 8.17816 -1.00005 19.5 -1.00005V0.999947ZM38 19.4999C38 9.28268 29.7173 0.999947 19.5 0.999947V-1.00005C30.8218 -1.00005 40 8.17811 40 19.4999H38ZM34.2997 30.6023C36.6234 27.5099 38 23.6671 38 19.4999H40C40 24.1152 38.4736 28.3769 35.8986 31.8038L34.2997 30.6023Z" fill="#E7E7E7" mask="url(#path-2-inside-1_405_2321)"/>
<g clip-path="url(#clip0_405_2321)">
<path d="M27.25 20V16.25C27.25 15.8522 27.092 15.4706 26.8107 15.1893C26.5294 14.908 26.1478 14.75 25.75 14.75H21.25V10.25C21.25 9.85218 21.092 9.47064 20.8107 9.18934C20.5294 8.90804 20.1478 8.75 19.75 8.75H15.25C14.8522 8.75 14.4706 8.90804 14.1893 9.18934C13.908 9.47064 13.75 9.85218 13.75 10.25V14.75H9.25C8.85218 14.75 8.47064 14.908 8.18934 15.1893C7.90804 15.4706 7.75 15.8522 7.75 16.25V20.75C7.75 21.1478 7.90804 21.5294 8.18934 21.8107C8.47064 22.092 8.85218 22.25 9.25 22.25H13.75V26.75C13.75 27.1478 13.908 27.5294 14.1893 27.8107C14.4706 28.092 14.8522 28.25 15.25 28.25H19.75" stroke="#9465ED" stroke-width="1.5" stroke-linecap="round" stroke-linejoin="round"/>
<path d="M25.875 22.625C25.9745 22.625 26.0698 22.6645 26.1402 22.7348C26.2105 22.8052 26.25 22.9005 26.25 23" fill="#9465ED"/>
<path d="M25.875 22.625C25.9745 22.625 26.0698 22.6645 26.1402 22.7348C26.2105 22.8052 26.25 22.9005 26.25 23" stroke="#9465ED" stroke-width="1.5" stroke-linecap="round" stroke-linejoin="round"/>
<path d="M25.5 23C25.5 22.9005 25.5395 22.8052 25.6098 22.7348C25.6802 22.6645 25.7755 22.625 25.875 22.625" fill="#9465ED"/>
<path d="M25.5 23C25.5 22.9005 25.5395 22.8052 25.6098 22.7348C25.6802 22.6645 25.7755 22.625 25.875 22.625" stroke="#9465ED" stroke-width="1.5" stroke-linecap="round" stroke-linejoin="round"/>
<path d="M25.875 23.375C25.7755 23.375 25.6802 23.3355 25.6098 23.2652C25.5395 23.1948 25.5 23.0995 25.5 23" fill="#9465ED"/>
<path d="M25.875 23.375C25.7755 23.375 25.6802 23.3355 25.6098 23.2652C25.5395 23.1948 25.5 23.0995 25.5 23" stroke="#9465ED" stroke-width="1.5" stroke-linecap="round" stroke-linejoin="round"/>
<path d="M26.25 23C26.25 23.0995 26.2105 23.1948 26.1402 23.2652C26.0698 23.3355 25.9745 23.375 25.875 23.375" fill="#9465ED"/>
<path d="M26.25 23C26.25 23.0995 26.2105 23.1948 26.1402 23.2652C26.0698 23.3355 25.9745 23.375 25.875 23.375" stroke="#9465ED" stroke-width="1.5" stroke-linecap="round" stroke-linejoin="round"/>
<path d="M22.125 24.125C22.2245 24.125 22.3198 24.1645 22.3902 24.2348C22.4605 24.3052 22.5 24.4005 22.5 24.5" stroke="#9465ED" stroke-width="1.5" stroke-linecap="round" stroke-linejoin="round"/>
<path d="M21.75 24.5C21.75 24.4005 21.7895 24.3052 21.8598 24.2348C21.9302 24.1645 22.0255 24.125 22.125 24.125" stroke="#9465ED" stroke-width="1.5" stroke-linecap="round" stroke-linejoin="round"/>
<path d="M22.125 24.875C22.0255 24.875 21.9302 24.8355 21.8598 24.7652C21.7895 24.6948 21.75 24.5995 21.75 24.5" stroke="#9465ED" stroke-width="1.5" stroke-linecap="round" stroke-linejoin="round"/>
<path d="M22.5 24.5C22.5 24.5995 22.4605 24.6948 22.3902 24.7652C22.3198 24.8355 22.2245 24.875 22.125 24.875" stroke="#9465ED" stroke-width="1.5" stroke-linecap="round" stroke-linejoin="round"/>
<path d="M29.625 24.125C29.7245 24.125 29.8198 24.1645 29.8902 24.2348C29.9605 24.3052 30 24.4005 30 24.5" stroke="#9465ED" stroke-width="1.5" stroke-linecap="round" stroke-linejoin="round"/>
<path d="M29.25 24.5C29.25 24.4005 29.2895 24.3052 29.3598 24.2348C29.4302 24.1645 29.5255 24.125 29.625 24.125" stroke="#9465ED" stroke-width="1.5" stroke-linecap="round" stroke-linejoin="round"/>
<path d="M29.625 24.875C29.5255 24.875 29.4302 24.8355 29.3598 24.7652C29.2895 24.6948 29.25 24.5995 29.25 24.5" stroke="#9465ED" stroke-width="1.5" stroke-linecap="round" stroke-linejoin="round"/>
<path d="M30 24.5C30 24.5995 29.9605 24.6948 29.8902 24.7652C29.8198 24.8355 29.7245 24.875 29.625 24.875" stroke="#9465ED" stroke-width="1.5" stroke-linecap="round" stroke-linejoin="round"/>
<path d="M26.762 27.1179C26.6457 27.0012 26.5075 26.9085 26.3552 26.8453C26.203 26.7821 26.0398 26.7495 25.875 26.7495C25.7102 26.7495 25.547 26.7821 25.3948 26.8453C25.2426 26.9085 25.1043 27.0012 24.988 27.1179L23 29.1079C22.8247 29.2834 22.7053 29.507 22.6569 29.7503C22.6086 29.9936 22.6334 30.2459 22.7283 30.4751C22.8232 30.7043 22.984 30.9002 23.1902 31.0381C23.3964 31.1761 23.6389 31.2498 23.887 31.2499H27.867C28.1151 31.2498 28.3576 31.1761 28.5638 31.0381C28.77 30.9002 28.9308 30.7043 29.0257 30.4751C29.1206 30.2459 29.1455 29.9936 29.0971 29.7503C29.0487 29.507 28.9294 29.2834 28.754 29.1079L26.762 27.1179Z" stroke="#9465ED" stroke-width="1.5" stroke-linecap="round" stroke-linejoin="round"/>
</g>
<defs>
<filter id="filter0_f_405_2321" x="2" y="56.2222" width="35" height="7" filterUnits="userSpaceOnUse" color-interpolation-filters="sRGB">
<feFlood flood-opacity="0" result="BackgroundImageFix"/>
<feBlend mode="normal" in="SourceGraphic" in2="BackgroundImageFix" result="shape"/>
<feGaussianBlur stdDeviation="1" result="effect1_foregroundBlur_405_2321"/>
</filter>
<clipPath id="clip0_405_2321">
<rect width="24" height="24" fill="white" transform="translate(7 8)"/>
</clipPath>
</defs>
</svg>
