<svg width="24" height="24" viewBox="0 0 24 24" fill="none" xmlns="http://www.w3.org/2000/svg">
<path d="M12.413 15.763C12.204 15.763 12.057 15.756 11.984 15.752C11.911 15.757 11.764 15.763 11.555 15.763C10.536 15.763 7.98802 15.585 6.33102 13.931C4.33502 11.939 4.48202 8.68399 4.51102 8.25299V5.27699C4.51102 4.86299 4.84702 4.52699 5.26102 4.52699C5.67502 4.52699 6.01102 4.86299 6.01102 5.27699V7.52199C6.80102 7.54799 7.97102 7.68099 9.10502 8.16099C9.02402 7.81699 8.98302 7.47599 8.98302 7.14099C8.98302 5.02499 10.571 3.30599 11.233 2.68099V0.765991C11.233 0.351991 11.569 0.0159912 11.983 0.0159912C12.396 0.0159912 12.733 0.351991 12.733 0.765991V2.68099C13.395 3.30599 14.983 5.02599 14.983 7.14099C14.983 7.47599 14.942 7.81699 14.861 8.16199C15.995 7.68099 17.166 7.54899 17.956 7.52199V5.27699C17.956 4.86299 18.292 4.52699 18.706 4.52699C19.12 4.52699 19.456 4.86299 19.456 5.27699V8.25499C19.485 8.68599 19.629 11.94 17.636 13.931C15.981 15.584 13.432 15.763 12.413 15.763ZM12.739 14.252C13.728 14.209 15.475 13.969 16.576 12.869C17.682 11.764 17.921 10.019 17.961 9.02799C16.964 9.07399 15.207 9.31999 14.117 10.41C13.026 11.501 12.784 13.233 12.737 14.18C12.738 14.205 12.738 14.229 12.739 14.252ZM6.00802 9.02599C6.04902 10.017 6.28702 11.766 7.39202 12.869C8.49102 13.966 10.242 14.208 11.23 14.252C11.231 14.231 11.231 14.21 11.232 14.189C11.185 13.239 10.942 11.5 9.85202 10.41C8.74502 9.30499 6.98802 9.06699 6.00802 9.02599ZM11.984 4.05499C11.393 4.68199 10.484 5.85499 10.484 7.14099C10.484 8.43099 11.392 9.60199 11.983 10.228C12.574 9.60099 13.484 8.42699 13.484 7.14099C13.484 5.85499 12.575 4.68199 11.984 4.05499Z" fill="black"/>
<path d="M11.9841 24C11.5701 24 11.2341 23.664 11.2341 23.25V22.507C10.0711 22.467 7.83408 22.181 6.33209 20.681C4.25509 18.608 4.50309 15.119 4.51409 14.972C4.54309 14.602 4.83309 14.312 5.20309 14.283C5.22009 14.282 5.39709 14.267 5.69309 14.267C6.71009 14.267 9.25609 14.446 10.9121 16.1C11.3421 16.53 11.7011 17.047 11.9841 17.645C12.2681 17.047 12.6271 16.53 13.0561 16.1C14.7111 14.445 17.2571 14.267 18.2751 14.267C18.5691 14.267 18.7481 14.281 18.7671 14.283C19.1351 14.312 19.4251 14.602 19.4541 14.972C19.4661 15.119 19.7131 18.607 17.6371 20.681C16.1341 22.181 13.8971 22.467 12.7341 22.507V23.25C12.7341 23.663 12.3971 24 11.9841 24ZM12.7391 21.002C13.7281 20.959 15.4751 20.719 16.5761 19.619C17.6801 18.516 17.9191 16.768 17.9601 15.776C16.9801 15.817 15.2231 16.054 14.1161 17.16C13.0251 18.251 12.7831 19.983 12.7361 20.93C12.7381 20.955 12.7381 20.979 12.7391 21.002ZM6.00809 15.775C6.04809 16.766 6.28709 18.516 7.39209 19.619C8.48609 20.711 10.2401 20.955 11.2301 21.001C11.2311 20.981 11.2311 20.96 11.2321 20.939C11.1851 19.988 10.9421 18.25 9.85209 17.16C8.74009 16.049 6.98009 15.814 6.00809 15.775Z" fill="black"/>
</svg>
