<svg width="24" height="24" viewBox="0 0 24 24" fill="none" xmlns="http://www.w3.org/2000/svg">
<g clip-path="url(#clip0_133_4028)">
<path d="M12 24C11.8 24 11.611 23.922 11.47 23.78L8.909 21.219C8.769 21.08 8.576 21 8.379 21H3.75C2.509 21 1.5 19.991 1.5 18.75V10.094C0.582 9.56 0 8.567 0 7.5C0 7.446 0.006 7.392 0.018 7.338L1.387 1.174C1.542 0.483 2.144 0 2.852 0H21.148C21.846 0 22.461 0.494 22.612 1.175L23.982 7.338C23.994 7.389 24 7.444 24 7.5C24 8.567 23.418 9.561 22.5 10.094V18.75C22.5 19.991 21.491 21 20.25 21H15.621C15.421 21 15.233 21.078 15.091 21.219L12.53 23.78C12.389 23.922 12.2 24 12 24ZM3 18.75C3 19.164 3.336 19.5 3.75 19.5H8.379C8.98 19.5 9.545 19.734 9.969 20.159L12 22.189L14.031 20.158C14.456 19.733 15.021 19.499 15.621 19.499H20.25C20.664 19.499 21 19.163 21 18.749V15.749H3V18.75ZM21 14.25V10.5C20.137 10.5 19.315 10.12 18.75 9.482C18.185 10.12 17.363 10.5 16.5 10.5C15.637 10.5 14.815 10.12 14.25 9.482C13.685 10.12 12.863 10.5 12 10.5C11.137 10.5 10.315 10.12 9.75 9.482C9.185 10.12 8.363 10.5 7.5 10.5C6.637 10.5 5.815 10.12 5.25 9.482C4.685 10.12 3.863 10.5 3 10.5V14.25H21ZM18.75 6.75C19.164 6.75 19.5 7.086 19.5 7.5C19.5 8.327 20.173 9 21 9C21.796 9 22.459 8.364 22.498 7.574C22.498 7.574 21.148 1.502 21.147 1.499L2.852 1.5L1.502 7.574C1.541 8.364 2.204 9 3 9C3.827 9 4.5 8.327 4.5 7.5C4.5 7.086 4.836 6.75 5.25 6.75C5.664 6.75 6 7.086 6 7.5C6 8.327 6.673 9 7.5 9C8.327 9 9 8.327 9 7.5C9 7.086 9.336 6.75 9.75 6.75C10.164 6.75 10.5 7.086 10.5 7.5C10.5 8.327 11.173 9 12 9C12.827 9 13.5 8.327 13.5 7.5C13.5 7.086 13.836 6.75 14.25 6.75C14.664 6.75 15 7.086 15 7.5C15 8.327 15.673 9 16.5 9C17.327 9 18 8.327 18 7.5C18 7.086 18.336 6.75 18.75 6.75Z" fill="#9465ED"/>
</g>
<defs>
<clipPath id="clip0_133_4028">
<rect width="24" height="24" fill="white"/>
</clipPath>
</defs>
</svg>
