<svg width="24" height="24" viewBox="0 0 24 24" fill="none" xmlns="http://www.w3.org/2000/svg">
<path d="M6.96597 21.537H4.03097C3.358 18.6373 2.86803 15.6982 2.56397 12.737C2.56357 12.255 2.65815 11.7776 2.8423 11.3322C3.02644 10.8868 3.29655 10.482 3.63718 10.141C3.97781 9.80001 4.38229 9.52947 4.82751 9.34484C5.27274 9.16021 5.74998 9.06511 6.23197 9.06498H12.832C13.1804 9.09356 13.5298 9.02299 13.8398 8.86144C14.1498 8.69988 14.4078 8.45393 14.584 8.15198" stroke="black" stroke-width="1.5" stroke-linecap="round" stroke-linejoin="round"/>
<path d="M17.2371 5.764C17.2371 7.182 17.6041 8.332 15.7691 8.332C13.9341 8.332 13.5681 7.6 14.3001 5.4C14.7471 4.06 15.1701 2.466 17.9681 2.466C18.6211 2.49752 19.2497 2.72394 19.7728 3.11606C20.296 3.50819 20.6896 4.04804 20.9031 4.666L23.1031 5.399C23.1031 5.399 23.9281 9.48 20.1681 9.067C19.4351 12.002 20.1681 14.203 17.9681 15.667V21.536H19.4361" stroke="black" stroke-width="1.5" stroke-linecap="round" stroke-linejoin="round"/>
<path d="M10.6341 13.467C10.6341 13.467 10.6341 16.402 6.96611 16.402L6.11011 21.537" stroke="black" stroke-width="1.5" stroke-linecap="round" stroke-linejoin="round"/>
<path d="M17.97 21.537H15.036L14.302 15.668H12.835" stroke="black" stroke-width="1.5" stroke-linecap="round" stroke-linejoin="round"/>
<path d="M3.3 10.533C3.3 10.533 -0.371001 9.80002 1.1 5.40002" stroke="black" stroke-width="1.5" stroke-linecap="round" stroke-linejoin="round"/>
</svg>
