<svg width="80" height="24" viewBox="0 0 80 24" fill="none" xmlns="http://www.w3.org/2000/svg">
<path d="M6.96597 21.537H4.03097C3.358 18.6373 2.86803 15.6982 2.56397 12.737C2.56357 12.255 2.65815 11.7776 2.8423 11.3322C3.02644 10.8868 3.29655 10.482 3.63718 10.141C3.97781 9.80001 4.38229 9.52947 4.82751 9.34484C5.27274 9.16021 5.74998 9.06511 6.23197 9.06498H12.832C13.1804 9.09356 13.5298 9.02299 13.8398 8.86144C14.1498 8.69988 14.4078 8.45393 14.584 8.15198" stroke="black" stroke-width="1.5" stroke-linecap="round" stroke-linejoin="round"/>
<path d="M17.2371 5.764C17.2371 7.182 17.6041 8.332 15.7691 8.332C13.9341 8.332 13.5681 7.6 14.3001 5.4C14.7471 4.06 15.1701 2.466 17.9681 2.466C18.6211 2.49752 19.2497 2.72394 19.7728 3.11606C20.296 3.50819 20.6896 4.04804 20.9031 4.666L23.1031 5.399C23.1031 5.399 23.9281 9.48 20.1681 9.067C19.4351 12.002 20.1681 14.203 17.9681 15.667V21.536H19.4361" stroke="black" stroke-width="1.5" stroke-linecap="round" stroke-linejoin="round"/>
<path d="M10.6341 13.467C10.6341 13.467 10.6341 16.402 6.96611 16.402L6.11011 21.537" stroke="black" stroke-width="1.5" stroke-linecap="round" stroke-linejoin="round"/>
<path d="M17.97 21.537H15.036L14.302 15.668H12.835" stroke="black" stroke-width="1.5" stroke-linecap="round" stroke-linejoin="round"/>
<path d="M3.3 10.533C3.3 10.533 -0.371001 9.80002 1.1 5.40002" stroke="black" stroke-width="1.5" stroke-linecap="round" stroke-linejoin="round"/>
<path d="M34.966 21.537H32.031C31.358 18.6373 30.868 15.6982 30.564 12.737C30.5636 12.255 30.6581 11.7776 30.8423 11.3322C31.0264 10.8868 31.2965 10.482 31.6372 10.141C31.9778 9.80001 32.3823 9.52947 32.8275 9.34484C33.2727 9.16021 33.75 9.06511 34.232 9.06498H40.832C41.1804 9.09356 41.5298 9.02299 41.8398 8.86144C42.1498 8.69988 42.4078 8.45393 42.584 8.15198" stroke="black" stroke-width="1.5" stroke-linecap="round" stroke-linejoin="round"/>
<path d="M45.2371 5.764C45.2371 7.182 45.6041 8.332 43.7691 8.332C41.9341 8.332 41.5681 7.6 42.3001 5.4C42.7471 4.06 43.1701 2.466 45.9681 2.466C46.6211 2.49752 47.2497 2.72394 47.7728 3.11606C48.296 3.50819 48.6896 4.04804 48.9031 4.666L51.1031 5.399C51.1031 5.399 51.9281 9.48 48.1681 9.067C47.4351 12.002 48.1681 14.203 45.9681 15.667V21.536H47.4361" stroke="black" stroke-width="1.5" stroke-linecap="round" stroke-linejoin="round"/>
<path d="M38.6341 13.467C38.6341 13.467 38.6341 16.402 34.9661 16.402L34.1101 21.537" stroke="black" stroke-width="1.5" stroke-linecap="round" stroke-linejoin="round"/>
<path d="M45.97 21.537H43.036L42.302 15.668H40.835" stroke="black" stroke-width="1.5" stroke-linecap="round" stroke-linejoin="round"/>
<path d="M31.3 10.533C31.3 10.533 27.629 9.80002 29.1 5.40002" stroke="black" stroke-width="1.5" stroke-linecap="round" stroke-linejoin="round"/>
<path d="M62.966 21.537H60.031C59.358 18.6373 58.868 15.6982 58.564 12.737C58.5636 12.255 58.6581 11.7776 58.8423 11.3322C59.0264 10.8868 59.2965 10.482 59.6372 10.141C59.9778 9.80001 60.3823 9.52947 60.8275 9.34484C61.2727 9.16021 61.75 9.06511 62.232 9.06498H68.832C69.1804 9.09356 69.5298 9.02299 69.8398 8.86144C70.1498 8.69988 70.4078 8.45393 70.584 8.15198" stroke="black" stroke-width="1.5" stroke-linecap="round" stroke-linejoin="round"/>
<path d="M73.2371 5.764C73.2371 7.182 73.6041 8.332 71.7691 8.332C69.9341 8.332 69.5681 7.6 70.3001 5.4C70.7471 4.06 71.1701 2.466 73.9681 2.466C74.6211 2.49752 75.2497 2.72394 75.7728 3.11606C76.296 3.50819 76.6896 4.04804 76.9031 4.666L79.1031 5.399C79.1031 5.399 79.9281 9.48 76.1681 9.067C75.4351 12.002 76.1681 14.203 73.9681 15.667V21.536H75.4361" stroke="black" stroke-width="1.5" stroke-linecap="round" stroke-linejoin="round"/>
<path d="M66.6341 13.467C66.6341 13.467 66.6341 16.402 62.9661 16.402L62.1101 21.537" stroke="black" stroke-width="1.5" stroke-linecap="round" stroke-linejoin="round"/>
<path d="M73.97 21.537H71.036L70.302 15.668H68.835" stroke="black" stroke-width="1.5" stroke-linecap="round" stroke-linejoin="round"/>
<path d="M59.3 10.533C59.3 10.533 55.629 9.80002 57.1 5.40002" stroke="black" stroke-width="1.5" stroke-linecap="round" stroke-linejoin="round"/>
</svg>
