<svg width="24" height="24" viewBox="0 0 24 24" fill="none" xmlns="http://www.w3.org/2000/svg">
<g clip-path="url(#clip0_466_2308)">
<path d="M16.4781 24.004C16.2271 24.004 15.9941 23.879 15.8541 23.671C13.4801 20.12 9.51112 18 5.23712 18C3.81112 18 2.40312 18.238 1.05112 18.708C0.971117 18.736 0.889117 18.75 0.805117 18.75C0.486117 18.75 0.201117 18.547 0.0961168 18.246C-0.0398833 17.856 0.168117 17.427 0.558117 17.291C2.06812 16.766 3.64212 16.5 5.23512 16.5C5.48812 16.5 5.74412 16.507 5.99912 16.521V13.5H2.25012C1.98912 13.499 1.73212 13.431 1.50712 13.302C1.16012 13.104 0.910117 12.781 0.804117 12.395C0.699117 12.009 0.750117 11.604 0.949117 11.256C0.961117 11.235 0.973117 11.215 0.987117 11.196L3.05712 8.25002H2.25012C1.98012 8.25002 1.73012 8.10402 1.59712 7.86902C1.46412 7.63202 1.46912 7.34302 1.60812 7.11202L5.48412 0.696023C5.61112 0.505023 5.75012 0.364023 5.91912 0.251023C6.16612 0.0870234 6.45312 2.34375e-05 6.74812 2.34375e-05C6.84712 2.34375e-05 6.94612 0.0100234 7.04412 0.0290234C7.43712 0.108023 7.77612 0.335023 7.99812 0.668023C8.00312 0.675023 11.8921 7.11302 11.8921 7.11302C12.0321 7.34402 12.0361 7.63402 11.9041 7.86902C11.7711 8.10402 11.5201 8.25002 11.2501 8.25002H10.4441L12.5151 11.197C12.5271 11.213 12.5401 11.234 12.5521 11.254C12.6821 11.482 12.7501 11.739 12.7501 12C12.7501 12.827 12.0771 13.5 11.2501 13.5H7.50012V16.684C8.64212 16.867 9.75712 17.189 10.8231 17.642C12.8741 15.824 15.3451 14.546 18.0011 13.93V11.25H14.8651C14.6261 11.25 14.3921 11.188 14.1861 11.069C13.8711 10.888 13.6441 10.595 13.5491 10.243C13.4541 9.89102 13.5011 9.52402 13.6821 9.20802C13.6941 9.18702 13.7081 9.16402 13.7241 9.14302L15.4471 6.75002H15.0701C14.7961 6.75002 14.5441 6.60102 14.4121 6.36102C14.2801 6.12002 14.2901 5.82702 14.4371 5.59602L17.6091 0.619023C17.7151 0.459023 17.8431 0.330023 17.9931 0.230023C18.2191 0.0790235 18.4811 -0.000976562 18.7501 -0.000976562C18.8391 -0.000976562 18.9291 0.00802344 19.0181 0.0250234C19.3761 0.0960234 19.6841 0.302023 19.8861 0.605023L23.0661 5.59602C23.2131 5.82602 23.2231 6.11902 23.0921 6.35902C22.9601 6.60002 22.7081 6.74902 22.4341 6.74902H22.0561L23.7781 9.14302C23.7921 9.16202 23.8051 9.18202 23.8171 9.20302C23.9381 9.41602 24.0001 9.65202 23.9991 9.89002C23.9981 10.254 23.8561 10.596 23.5981 10.853C23.3411 11.109 22.9991 11.25 22.6361 11.25H19.5011V13.654C20.2491 13.552 20.9971 13.5 21.7301 13.5C22.3181 13.503 22.8381 13.528 23.3211 13.573C23.5201 13.592 23.7011 13.687 23.8281 13.842C23.9551 13.996 24.0161 14.191 23.9961 14.391C23.9601 14.772 23.6321 15.07 23.2501 15.07C23.2261 15.07 23.2011 15.069 23.1761 15.066C22.7111 15.022 22.2521 14.999 21.8131 14.999H21.7311C20.7841 14.999 19.8361 15.088 18.9141 15.264C18.9121 15.265 18.8851 15.271 18.8581 15.274C16.4651 15.736 14.1981 16.802 12.2861 18.362C14.2121 19.456 15.8691 20.993 17.1011 22.835C17.3311 23.179 17.2381 23.646 16.8951 23.875C16.7711 23.96 16.6271 24.004 16.4781 24.004ZM11.2461 12L8.38712 7.93102C8.22512 7.70102 8.20512 7.40302 8.33512 7.15402C8.46412 6.90502 8.71912 6.75002 9.00012 6.75002H9.92112L6.75012 1.50102L3.57912 6.75002H4.50012C4.78112 6.75002 5.03612 6.90502 5.16612 7.15402C5.29612 7.40302 5.27612 7.70102 5.11412 7.93102L2.25512 12H11.2461ZM16.9101 5.25002C17.1931 5.25002 17.4491 5.40602 17.5771 5.65802C17.7061 5.90902 17.6831 6.20802 17.5191 6.43802L15.1351 9.75002L22.3651 9.74902L19.9831 6.43702C19.8181 6.20702 19.7951 5.90802 19.9241 5.65702C20.0531 5.40602 20.3091 5.24902 20.5911 5.24902H21.0651L18.7511 1.61602L16.4361 5.25002H16.9101Z" fill="black"/>
</g>
<defs>
<clipPath id="clip0_466_2308">
<rect width="24" height="24" fill="white"/>
</clipPath>
</defs>
</svg>
