<svg width="24" height="25" viewBox="0 0 24 25" fill="none" xmlns="http://www.w3.org/2000/svg">
<path d="M7.553 24.999C7.238 24.999 6.932 24.934 6.643 24.806L1.348 22.56C0.527 22.195 0 21.387 0 20.499V3.24899C0 3.00699 0.039 2.76799 0.115 2.53799C0.305 1.96799 0.705 1.50599 1.243 1.23699C1.56 1.07799 1.898 0.997986 2.248 0.997986C2.489 0.997986 2.729 1.03699 2.961 1.11399C2.993 1.12499 3.022 1.13699 3.05 1.14999L7.342 3.22099C7.407 3.23999 7.474 3.24899 7.541 3.24899C7.607 3.24899 7.674 3.23999 7.738 3.22299L15.132 1.14099C15.33 1.08699 15.53 1.05999 15.731 1.05999C15.949 1.05999 16.166 1.09199 16.375 1.15399L22.396 2.95999C23.355 3.24699 24 4.11299 24 5.11499V21.87C24 22.157 23.946 22.438 23.839 22.705C23.495 23.564 22.674 24.12 21.748 24.12C21.462 24.12 21.182 24.066 20.915 23.959L16.008 22.031C15.915 21.994 15.821 21.975 15.725 21.975C15.638 21.975 15.551 21.99 15.468 22.02L8.346 24.856C8.081 24.952 7.818 24.999 7.553 24.999ZM2.249 2.49799C2.133 2.49799 2.02 2.52499 1.915 2.57799C1.736 2.66799 1.602 2.82199 1.539 3.01199C1.513 3.08899 1.5 3.16799 1.5 3.24899V20.499C1.5 20.795 1.675 21.064 1.945 21.184L7.239 23.429C7.345 23.476 7.45 23.499 7.557 23.499C7.644 23.499 7.73 23.484 7.813 23.454L14.934 20.619C15.198 20.523 15.461 20.476 15.727 20.476C16.013 20.476 16.294 20.53 16.56 20.637L21.467 22.565C21.559 22.602 21.653 22.62 21.748 22.62C22.058 22.62 22.331 22.435 22.446 22.149C22.481 22.06 22.499 21.967 22.499 21.871V5.11499C22.499 4.78099 22.284 4.49199 21.965 4.39599L15.945 2.58999C15.875 2.56899 15.803 2.55899 15.73 2.55899C15.664 2.55899 15.597 2.56799 15.533 2.58499L8.139 4.66799C7.941 4.72199 7.741 4.74899 7.54 4.74899C7.299 4.74899 7.06 4.70999 6.83 4.63399C6.799 4.62399 6.769 4.61199 6.741 4.59799L2.449 2.52599C2.383 2.50799 2.316 2.49799 2.249 2.49799Z" fill="black"/>
<path d="M7.5 21.999C7.404 21.999 7.311 21.981 7.222 21.946L3.472 20.446C3.185 20.331 3 20.058 3 19.749V5.49896C3 5.24996 3.123 5.01796 3.329 4.87796C3.454 4.79296 3.6 4.74896 3.75 4.74896C3.846 4.74896 3.94 4.76696 4.029 4.80296L7.545 6.20896L15.553 4.02496C15.617 4.00796 15.684 3.99896 15.75 3.99896C15.831 3.99896 15.91 4.01196 15.987 4.03696L20.487 5.53696C20.794 5.63996 21 5.92496 21 6.24896V19.749C21 19.989 20.884 20.217 20.688 20.357C20.559 20.45 20.408 20.499 20.25 20.499C20.169 20.499 20.089 20.486 20.012 20.46L15.761 19.043L7.757 21.954C7.673 21.984 7.587 21.999 7.5 21.999ZM7.513 20.446L9 19.905V17.113L7.7 17.472C7.635 17.49 7.568 17.499 7.5 17.499C7.412 17.499 7.325 17.484 7.242 17.453L4.5 16.451V19.242L7.513 20.446ZM9.75 15.378C9.913 15.378 10.075 15.432 10.204 15.531C10.389 15.672 10.5 15.895 10.5 16.128V19.36L13.5 18.269V15.249C13.5 14.963 13.659 14.706 13.915 14.578L15.415 13.828C15.519 13.776 15.635 13.749 15.751 13.749C15.832 13.749 15.912 13.762 15.989 13.788L19.501 14.959V6.78896L15.729 5.53196L15 5.73096V9.06196C15 9.47596 14.664 9.81196 14.25 9.81196C13.836 9.81196 13.5 9.47596 13.5 9.06196V6.13996L7.697 7.72196C7.633 7.73996 7.567 7.74896 7.5 7.74896C7.404 7.74896 7.311 7.73096 7.222 7.69596L4.5 6.60696V10.37L7.5 11.57L10.971 10.182C11.06 10.146 11.154 10.128 11.249 10.128C11.558 10.128 11.831 10.313 11.946 10.599C12.1 10.983 11.912 11.42 11.528 11.574L7.778 13.074C7.69 13.11 7.596 13.128 7.5 13.128C7.404 13.128 7.31 13.11 7.221 13.074L4.5 11.986V14.854L7.532 15.962L9.551 15.405C9.616 15.387 9.683 15.378 9.75 15.378ZM15.75 17.499C15.831 17.499 15.911 17.512 15.987 17.538L19.499 18.709V16.54L15.807 15.309L15 15.712V17.723L15.494 17.544C15.578 17.514 15.663 17.499 15.75 17.499Z" fill="black"/>
</svg>
