<svg width="24" height="24" viewBox="0 0 24 24" fill="none" xmlns="http://www.w3.org/2000/svg">
<g clip-path="url(#clip0_488_2297)">
<path d="M9.39997 5.25C9.35597 5.25 9.31197 5.246 9.26997 5.239C8.75997 5.179 8.36097 4.79 8.28997 4.282C8.27797 4.228 8.27197 4.177 8.27197 4.125C8.27197 3.505 8.77697 3 9.39697 3H9.39997C10.02 3 10.525 3.505 10.525 4.125C10.525 4.176 10.519 4.228 10.507 4.282C10.435 4.787 10.037 5.177 9.52897 5.238C9.51297 5.241 9.49697 5.243 9.47997 5.244C9.46297 5.246 9.42397 5.25 9.40697 5.25C9.40597 5.25 9.40397 5.25 9.40297 5.25H9.39997Z" fill="black"/>
<path d="M14.6469 5.25C14.6029 5.25 14.5589 5.246 14.5159 5.239C14.0029 5.179 13.5939 4.769 13.5339 4.256C13.5259 4.214 13.5229 4.17 13.5229 4.126C13.5229 4.082 13.5269 4.038 13.5339 3.996C13.5939 3.483 14.0039 3.073 14.5159 3.013C14.5589 3.004 14.6029 3 14.6469 3C14.6909 3 14.7349 3.004 14.7779 3.011C15.2909 3.071 15.6999 3.481 15.7609 3.994C15.7679 4.036 15.7719 4.08 15.7719 4.124C15.7719 4.168 15.7679 4.212 15.7609 4.254C15.6999 4.767 15.2909 5.177 14.7779 5.237C14.7349 5.246 14.6909 5.25 14.6469 5.25Z" fill="black"/>
<path d="M12.022 3C11.822 3 11.633 2.922 11.492 2.78L9.99197 1.28C9.84997 1.139 9.77197 0.95 9.77197 0.75C9.77197 0.55 9.84997 0.361 9.99197 0.22C10.133 0.078 10.322 0 10.522 0C10.722 0 10.911 0.078 11.052 0.22L12.022 1.19L12.992 0.22C13.133 0.078 13.322 0 13.522 0C13.722 0 13.911 0.078 14.052 0.22C14.194 0.361 14.272 0.55 14.272 0.75C14.272 0.95 14.194 1.139 14.052 1.28L12.552 2.78C12.411 2.922 12.222 3 12.022 3Z" fill="black"/>
<path d="M12.022 24C11.611 24 10.543 23.884 9.49997 22.813C8.71397 22.006 8.13397 20.84 7.77197 19.345C6.44197 20.376 4.95097 21 3.77197 21C3.40597 21 2.51997 20.865 2.20897 19.62C1.79797 17.974 2.67197 14.822 4.25297 12.174L3.02197 11.25C2.37697 10.766 1.57797 10.5 0.771973 10.5C0.357973 10.5 0.0219727 10.164 0.0219727 9.75C0.0219727 9.336 0.357973 9 0.771973 9C1.89997 9 3.01897 9.373 3.92197 10.05L5.08197 10.92C5.58397 10.234 6.12397 9.616 6.69297 9.076L5.40097 6.922C5.05997 6.353 4.43597 6 3.77297 6C3.35897 6 3.02197 5.664 3.02197 5.25C3.02197 4.836 3.35797 4.5 3.77197 4.5C4.95997 4.5 6.07597 5.132 6.68697 6.15L7.86197 8.108C8.02797 7.99 8.19797 7.877 8.36997 7.77C8.30497 7.436 8.27197 7.094 8.27197 6.75C8.27197 6.336 8.60797 6 9.02197 6C9.43597 6 9.77197 6.336 9.77197 6.75C9.77197 8.404 10.781 9.75 12.022 9.75C13.263 9.75 14.272 8.404 14.272 6.75C14.272 6.336 14.608 6 15.022 6C15.436 6 15.772 6.336 15.772 6.75C15.772 7.093 15.739 7.435 15.674 7.769C15.846 7.876 16.016 7.989 16.183 8.107L17.357 6.15C17.968 5.132 19.084 4.5 20.271 4.5C20.685 4.5 21.022 4.837 21.022 5.25C21.022 5.663 20.686 6 20.272 6C19.608 6 18.984 6.353 18.643 6.922L17.351 9.076C17.921 9.617 18.461 10.235 18.963 10.921L20.123 10.051C21.025 9.373 22.144 9 23.273 9C23.687 9 24.023 9.336 24.023 9.75C24.023 10.164 23.687 10.5 23.273 10.5C22.467 10.5 21.668 10.766 21.023 11.25L19.791 12.174C21.372 14.822 22.246 17.974 21.835 19.62C21.524 20.865 20.638 21 20.272 21C19.094 21 17.603 20.376 16.273 19.346C15.911 20.84 15.331 22.005 14.544 22.814C13.501 23.884 12.433 24 12.022 24ZM9.36197 19.5C10.23 22.412 11.834 22.5 12.022 22.5C12.21 22.5 13.814 22.412 14.682 19.5H9.36197ZM8.88797 9.219C5.30297 11.66 3.18697 17.348 3.66397 19.256C3.71497 19.458 3.77197 19.506 3.77297 19.506C5.77397 19.499 9.77297 16.581 9.77297 12.749V10.348C9.42597 10.037 9.12597 9.653 8.88797 9.219ZM14.272 12.75C14.272 16.582 18.271 19.5 20.272 19.5C20.278 19.5 20.332 19.447 20.379 19.256C20.856 17.348 18.74 11.66 15.155 9.218C14.917 9.653 14.617 10.037 14.271 10.349V12.75H14.272ZM14.85 18C14.06 17.09 13.471 16.063 13.13 15H10.915C10.574 16.063 9.98497 17.089 9.19497 18H14.85ZM12.813 13.5C12.786 13.246 12.772 12.995 12.772 12.75V11.157C12.524 11.219 12.273 11.25 12.022 11.25C11.771 11.25 11.52 11.219 11.272 11.157V12.75C11.272 12.995 11.258 13.246 11.231 13.5H12.813Z" fill="black"/>
</g>
<defs>
<clipPath id="clip0_488_2297">
<rect width="24" height="24" fill="white"/>
</clipPath>
</defs>
</svg>
