<svg width="24" height="24" viewBox="0 0 24 24" fill="none" xmlns="http://www.w3.org/2000/svg">
<g clip-path="url(#clip0_133_4031)">
<path d="M5.25001 19.5C4.00901 19.5 3.00001 18.491 3.00001 17.25V8.91L1.21901 10.335C1.08601 10.441 0.920015 10.5 0.750015 10.5C0.521015 10.5 0.307015 10.397 0.164015 10.219C0.0390147 10.063 -0.0179853 9.867 0.00401472 9.668C0.0260147 9.469 0.124015 9.29 0.281015 9.165L11.531 0.165C11.664 0.058 11.83 0 12 0C12.17 0 12.336 0.058 12.469 0.165L19.512 5.799C19.668 5.924 19.767 6.103 19.789 6.302C19.811 6.501 19.754 6.697 19.629 6.853C19.486 7.032 19.273 7.134 19.043 7.134C18.873 7.134 18.707 7.076 18.575 6.97L12 1.71L4.50001 7.71V17.25C4.50001 17.663 4.83601 18 5.25001 18H8.25001C8.66301 18 9.00001 18.336 9.00001 18.75C9.00001 19.164 8.66301 19.5 8.25001 19.5H5.25001Z" fill="#9465ED"/>
<path d="M16.5 15.75C15.259 15.75 14.25 14.741 14.25 13.5C14.25 12.259 15.259 11.25 16.5 11.25C17.741 11.25 18.75 12.259 18.75 13.5C18.75 14.741 17.74 15.75 16.5 15.75ZM16.5 12.75C16.086 12.75 15.75 13.086 15.75 13.5C15.75 13.914 16.086 14.25 16.5 14.25C16.914 14.25 17.25 13.914 17.25 13.5C17.25 13.086 16.913 12.75 16.5 12.75Z" fill="#9465ED"/>
<path d="M11.25 18.75C10.009 18.75 9 17.741 9 16.5C9 15.259 10.009 14.25 11.25 14.25C12.491 14.25 13.5 15.259 13.5 16.5C13.5 17.741 12.49 18.75 11.25 18.75ZM11.25 15.75C10.836 15.75 10.5 16.086 10.5 16.5C10.5 16.914 10.836 17.25 11.25 17.25C11.664 17.25 12 16.913 12 16.5C12 16.087 11.663 15.75 11.25 15.75Z" fill="#9465ED"/>
<path d="M21.75 18.75C20.509 18.75 19.5 17.741 19.5 16.5C19.5 15.259 20.509 14.25 21.75 14.25C22.991 14.25 24 15.259 24 16.5C24 17.741 22.99 18.75 21.75 18.75ZM21.75 15.75C21.336 15.75 21 16.086 21 16.5C21 16.914 21.336 17.25 21.75 17.25C22.164 17.25 22.5 16.914 22.5 16.5C22.5 16.086 22.163 15.75 21.75 15.75Z" fill="#9465ED"/>
<path d="M13.501 24C13.099 24 12.725 23.846 12.443 23.567C12.158 23.286 12 22.91 11.998 22.51C11.996 22.183 12.104 21.858 12.302 21.597L15.3 17.6C15.54 17.279 15.891 17.072 16.288 17.015C16.359 17.005 16.431 17 16.503 17C16.828 17 17.138 17.104 17.4 17.3C17.514 17.386 17.615 17.487 17.7 17.6L20.7 21.6C20.94 21.921 21.041 22.316 20.985 22.712C20.928 23.109 20.72 23.459 20.4 23.7C20.141 23.894 19.821 24 19.5 24H13.501V24ZM13.5 22.5H19.5L16.501 18.501L13.5 22.5Z" fill="#9465ED"/>
</g>
<defs>
<clipPath id="clip0_133_4031">
<rect width="24" height="24" fill="white"/>
</clipPath>
</defs>
</svg>
