<svg width="24" height="24" viewBox="0 0 24 24" fill="none" xmlns="http://www.w3.org/2000/svg">
<g clip-path="url(#clip0_466_2379)">
<path d="M23.25 21.75C23.25 19.265 18.213 17.25 12 17.25C5.787 17.25 0.75 19.265 0.75 21.75V23.25H23.25V21.75Z" stroke="black" stroke-width="1.5" stroke-linecap="round" stroke-linejoin="round"/>
<path d="M15.634 8.47699L14.823 17.393" stroke="black" stroke-width="1.5" stroke-linecap="round" stroke-linejoin="round"/>
<path d="M8.48706 17.474L13.7341 7.85498" stroke="black" stroke-width="1.5" stroke-linecap="round" stroke-linejoin="round"/>
<path d="M13.7339 7.85503L22.0099 10.564C22.1349 10.606 22.2687 10.6143 22.3979 10.5881C22.5271 10.5619 22.6471 10.5022 22.7459 10.415C22.8447 10.3277 22.9188 10.216 22.9608 10.091C23.0027 9.96604 23.011 9.83223 22.9849 9.70303C22.8655 8.74655 22.4567 7.84939 21.8134 7.13165C21.17 6.41392 20.3227 5.90988 19.3849 5.68703C18.596 5.51795 17.7834 5.49019 16.9849 5.60503" stroke="black" stroke-width="1.5" stroke-linecap="round" stroke-linejoin="round"/>
<path d="M13.7341 7.855L6.20011 9.9C6.07647 9.93405 5.94616 9.93582 5.82164 9.90516C5.69711 9.87449 5.58253 9.81241 5.48884 9.72484C5.39515 9.63726 5.32548 9.52713 5.28649 9.40496C5.24749 9.28278 5.24048 9.15265 5.26611 9.027C5.37592 8.05645 5.78189 7.14326 6.42884 6.4115C7.07579 5.67975 7.93235 5.16492 8.88211 4.937C9.90992 4.70459 10.9794 4.73174 11.9941 5.016" stroke="black" stroke-width="1.5" stroke-linecap="round" stroke-linejoin="round"/>
<path d="M18.5781 5.56699L21.6781 2.45099C21.7643 2.3663 21.8287 2.26195 21.8657 2.14689C21.9028 2.03183 21.9113 1.90951 21.8907 1.79042C21.87 1.67133 21.8208 1.55903 21.7472 1.46316C21.6736 1.36729 21.5778 1.29071 21.4681 1.23999C20.6561 0.844822 19.7503 0.68324 18.8518 0.773303C17.9532 0.863367 17.0975 1.20153 16.3801 1.74999C15.7439 2.26091 15.294 2.96741 15.1001 3.75999" stroke="black" stroke-width="1.5" stroke-linecap="round" stroke-linejoin="round"/>
<path d="M10.1789 4.78402L8.22895 2.66802C8.13858 2.57109 8.07559 2.45189 8.04642 2.32262C8.01725 2.19335 8.02295 2.05865 8.06293 1.93231C8.10291 1.80596 8.17573 1.69251 8.27395 1.60355C8.37218 1.51459 8.49227 1.45332 8.62195 1.42602C9.44903 1.26619 10.2896 1.18616 11.1319 1.18702C11.9524 1.26206 12.7423 1.53548 13.4335 1.98372C14.1248 2.43196 14.6967 3.04158 15.0999 3.76002" stroke="black" stroke-width="1.5" stroke-linecap="round" stroke-linejoin="round"/>
</g>
<defs>
<clipPath id="clip0_466_2379">
<rect width="24" height="24" fill="white"/>
</clipPath>
</defs>
</svg>
