<svg width="24" height="24" viewBox="0 0 24 24" fill="none" xmlns="http://www.w3.org/2000/svg">
<g clip-path="url(#clip0_133_4027)">
<path d="M20.625 2.25L22.5 1.125" stroke="#9465ED" stroke-width="1.5" stroke-linecap="round" stroke-linejoin="round"/>
<path d="M20.625 7.5L22.5 8.625" stroke="#9465ED" stroke-width="1.5" stroke-linecap="round" stroke-linejoin="round"/>
<path d="M20.625 4.875H22.875" stroke="#9465ED" stroke-width="1.5" stroke-linecap="round" stroke-linejoin="round"/>
<path d="M14.625 1.875H7.875C6.68153 1.875 5.53693 2.34911 4.69302 3.19302C3.84911 4.03693 3.375 5.18153 3.375 6.375H7.125V10.875H10.125V6.375H14.625V1.875Z" stroke="#9465ED" stroke-width="1.5" stroke-linecap="round" stroke-linejoin="round"/>
<path d="M10.125 6.375C10.125 6.375 12.375 10.125 15.375 10.125" stroke="#9465ED" stroke-width="1.5" stroke-linecap="round" stroke-linejoin="round"/>
<path d="M11.625 13.875V12.375C11.625 11.9772 11.467 11.5956 11.1857 11.3143C10.9044 11.033 10.5228 10.875 10.125 10.875H7.125C6.72718 10.875 6.34564 11.033 6.06434 11.3143C5.78304 11.5956 5.625 11.9772 5.625 12.375V13.875C3.375 13.875 1.125 15.375 1.125 19.875C1.125 20.6706 1.44107 21.4337 2.00368 21.9963C2.56629 22.5589 3.32935 22.875 4.125 22.875H13.125C13.9206 22.875 14.6837 22.5589 15.2463 21.9963C15.8089 21.4337 16.125 20.6706 16.125 19.875C16.125 15.375 13.875 13.875 11.625 13.875Z" stroke="#9465ED" stroke-width="1.5" stroke-linecap="round" stroke-linejoin="round"/>
<path d="M17.625 3.375V5.625" stroke="#9465ED" stroke-width="1.5" stroke-linecap="round" stroke-linejoin="round"/>
</g>
<defs>
<clipPath id="clip0_133_4027">
<rect width="24" height="24" fill="white"/>
</clipPath>
</defs>
</svg>
