<svg width="24" height="24" viewBox="0 0 24 24" fill="none" xmlns="http://www.w3.org/2000/svg">
<g clip-path="url(#clip0_466_2387)">
<path d="M0.748916 24C0.334916 24 -0.0010839 23.664 -0.0010839 23.25C-0.0010839 22.836 0.334916 22.5 0.748916 22.5H1.49892V7.5H0.748916C0.486916 7.5 0.248916 7.367 0.110916 7.144C-0.0270839 6.922 -0.0390839 6.649 0.0779161 6.414L1.91292 2.743C2.29692 1.976 3.06792 1.5 3.92592 1.5H8.24892V0.75C8.24892 0.336 8.58492 0 8.99892 0C9.41292 0 9.74892 0.336 9.74892 0.75V1.5H11.0719C11.9299 1.5 12.7009 1.976 13.0849 2.743L14.9199 6.414C15.0369 6.648 15.0249 6.921 14.8869 7.143C14.7489 7.367 14.5109 7.5 14.2489 7.5H13.4989V22.5H17.9989V20.871C17.1139 20.557 16.4989 19.709 16.4989 18.75C16.4989 18.725 16.4999 18.7 16.5029 18.676C16.6819 16.753 17.2119 14.897 18.0779 13.165C18.2059 12.909 18.4629 12.75 18.7489 12.75C19.0349 12.75 19.2909 12.909 19.4199 13.164C20.2859 14.897 20.8169 16.753 20.9959 18.681C20.9979 18.701 20.9989 18.725 20.9989 18.75C20.9989 19.71 20.3839 20.558 19.4989 20.871V22.5H23.2489C23.6629 22.5 23.9989 22.836 23.9989 23.25C23.9989 23.664 23.6629 24 23.2489 24H0.748916ZM11.9989 22.5V7.5H2.99892V22.5H5.24892V20.25C5.24892 19.009 6.25792 18 7.49892 18C8.73992 18 9.74892 19.009 9.74892 20.25V22.5H11.9989ZM8.24892 22.5V20.25C8.24892 19.836 7.91292 19.5 7.49892 19.5C7.08492 19.5 6.74892 19.836 6.74892 20.25V22.5H8.24892ZM17.9989 18.779C18.0149 19.178 18.3469 19.5 18.7489 19.5C19.1509 19.5 19.4829 19.178 19.4989 18.779C19.3879 17.624 19.1369 16.494 18.7489 15.407C18.3619 16.494 18.1099 17.624 17.9989 18.779ZM13.0359 6L11.7439 3.414C11.6149 3.159 11.3579 3 11.0719 3H3.92592C3.63992 3 3.38292 3.159 3.25492 3.415L1.96192 6H13.0359Z" fill="black"/>
<path d="M5.24902 16.5C4.83502 16.5 4.49902 16.164 4.49902 15.75C4.49902 15.336 4.83502 15 5.24902 15H9.74902C10.163 15 10.499 15.336 10.499 15.75C10.499 16.164 10.163 16.5 9.74902 16.5H5.24902Z" fill="black"/>
<path d="M5.24902 13.5C4.83502 13.5 4.49902 13.164 4.49902 12.75C4.49902 12.336 4.83502 12 5.24902 12H9.74902C10.163 12 10.499 12.336 10.499 12.75C10.499 13.164 10.163 13.5 9.74902 13.5H5.24902Z" fill="black"/>
<path d="M5.24902 10.5C4.83502 10.5 4.49902 10.164 4.49902 9.75C4.49902 9.336 4.83502 9 5.24902 9H9.74902C10.163 9 10.499 9.336 10.499 9.75C10.499 10.164 10.163 10.5 9.74902 10.5H5.24902Z" fill="black"/>
</g>
<defs>
<clipPath id="clip0_466_2387">
<rect width="24" height="24" fill="white"/>
</clipPath>
</defs>
</svg>
