<svg width="24" height="24" viewBox="0 0 24 24" fill="none" xmlns="http://www.w3.org/2000/svg">
<path d="M12.676 24C7.195 24 5.25 21.271 5.25 18.934C5.25 15.342 7.804 12.417 8.867 11.355C8.442 11.154 7.99 10.914 7.5 10.647V10.714C7.5 11.447 6.984 12 6.3 12H4.5C4.086 12 3.75 11.664 3.75 11.25C3.75 10.836 4.086 10.5 4.5 10.5H6V4.5H4.5C4.086 4.5 3.75 4.164 3.75 3.75C3.75 3.336 4.086 3 4.5 3H6.3C6.937 3 7.428 3.48 7.493 4.138H8.121C8.283 4.132 8.456 4.043 8.571 3.9L9.518 2.567L9.153 1.885C8.954 1.499 8.953 1.046 9.147 0.668C9.335 0.274 9.737 0.015 10.19 0H16.032C16.503 0.011 16.914 0.273 17.112 0.685C17.3 1.049 17.298 1.496 17.103 1.874L16.105 3.751L16.438 3.75C17.956 3.75 18.75 4.693 18.75 5.625C18.75 5.839 18.145 8.826 17.677 10.346C17.492 10.944 17.292 11.383 16.937 11.656C18.044 12.834 20.25 15.602 20.25 18.934C20.25 22.434 16.446 24 12.676 24ZM10.463 11.921C9.347 12.817 6.75 15.782 6.75 18.934C6.75 21.566 9.942 22.5 12.676 22.5C15.699 22.5 18.75 21.397 18.75 18.934C18.75 15.71 16.178 12.87 15.14 12H11.244C10.987 12 10.73 11.974 10.463 11.921ZM10.637 10.422C10.856 10.475 11.055 10.5 11.244 10.5H15.4C15.673 10.5 15.982 10.5 16.034 10.463C16.081 10.429 16.167 10.15 16.243 9.905C16.691 8.452 17.153 6.064 17.244 5.585C17.207 5.444 16.973 5.251 16.44 5.251L11.416 5.271C11.136 5.271 10.882 5.119 10.752 4.875L10.308 4.045L9.766 4.806C9.354 5.319 8.769 5.616 8.147 5.638H7.5V8.939L7.806 9.106C8.815 9.658 9.688 10.136 10.407 10.356C10.485 10.365 10.563 10.387 10.637 10.422ZM11.862 3.768L14.403 3.758L15.604 1.5H10.648L11.037 2.227C11.051 2.25 11.064 2.274 11.075 2.299L11.862 3.768Z" fill="black"/>
</svg>
