<svg width="24" height="24" viewBox="0 0 24 24" fill="none" xmlns="http://www.w3.org/2000/svg">
<g clip-path="url(#clip0_133_4029)">
<path d="M20.25 12V8.25C20.25 7.85218 20.092 7.47064 19.8107 7.18934C19.5294 6.90804 19.1478 6.75 18.75 6.75H14.25V2.25C14.25 1.85218 14.092 1.47064 13.8107 1.18934C13.5294 0.908035 13.1478 0.75 12.75 0.75H8.25C7.85218 0.75 7.47064 0.908035 7.18934 1.18934C6.90804 1.47064 6.75 1.85218 6.75 2.25V6.75H2.25C1.85218 6.75 1.47064 6.90804 1.18934 7.18934C0.908035 7.47064 0.75 7.85218 0.75 8.25V12.75C0.75 13.1478 0.908035 13.5294 1.18934 13.8107C1.47064 14.092 1.85218 14.25 2.25 14.25H6.75V18.75C6.75 19.1478 6.90804 19.5294 7.18934 19.8107C7.47064 20.092 7.85218 20.25 8.25 20.25H12.75" stroke="#9465ED" stroke-width="1.5" stroke-linecap="round" stroke-linejoin="round"/>
<path d="M18.875 14.625C18.9745 14.625 19.0698 14.6645 19.1402 14.7348C19.2105 14.8052 19.25 14.9005 19.25 15" stroke="#9465ED" stroke-width="1.5" stroke-linecap="round" stroke-linejoin="round"/>
<path d="M18.5 15C18.5 14.9005 18.5395 14.8052 18.6098 14.7348C18.6802 14.6645 18.7755 14.625 18.875 14.625" stroke="#9465ED" stroke-width="1.5" stroke-linecap="round" stroke-linejoin="round"/>
<path d="M18.875 15.375C18.7755 15.375 18.6802 15.3355 18.6098 15.2652C18.5395 15.1948 18.5 15.0995 18.5 15" stroke="#9465ED" stroke-width="1.5" stroke-linecap="round" stroke-linejoin="round"/>
<path d="M19.25 15C19.25 15.0995 19.2105 15.1948 19.1402 15.2652C19.0698 15.3355 18.9745 15.375 18.875 15.375" stroke="#9465ED" stroke-width="1.5" stroke-linecap="round" stroke-linejoin="round"/>
<path d="M15.125 16.125C15.2245 16.125 15.3198 16.1645 15.3902 16.2348C15.4605 16.3052 15.5 16.4005 15.5 16.5" stroke="#9465ED" stroke-width="1.5" stroke-linecap="round" stroke-linejoin="round"/>
<path d="M14.75 16.5C14.75 16.4005 14.7895 16.3052 14.8598 16.2348C14.9302 16.1645 15.0255 16.125 15.125 16.125" stroke="#9465ED" stroke-width="1.5" stroke-linecap="round" stroke-linejoin="round"/>
<path d="M15.125 16.875C15.0255 16.875 14.9302 16.8355 14.8598 16.7652C14.7895 16.6948 14.75 16.5995 14.75 16.5" stroke="#9465ED" stroke-width="1.5" stroke-linecap="round" stroke-linejoin="round"/>
<path d="M15.5 16.5C15.5 16.5995 15.4605 16.6948 15.3902 16.7652C15.3198 16.8355 15.2245 16.875 15.125 16.875" stroke="#9465ED" stroke-width="1.5" stroke-linecap="round" stroke-linejoin="round"/>
<path d="M22.625 16.125C22.7245 16.125 22.8198 16.1645 22.8902 16.2348C22.9605 16.3052 23 16.4005 23 16.5" stroke="#9465ED" stroke-width="1.5" stroke-linecap="round" stroke-linejoin="round"/>
<path d="M22.25 16.5C22.25 16.4005 22.2895 16.3052 22.3598 16.2348C22.4302 16.1645 22.5255 16.125 22.625 16.125" stroke="#9465ED" stroke-width="1.5" stroke-linecap="round" stroke-linejoin="round"/>
<path d="M22.625 16.875C22.5255 16.875 22.4302 16.8355 22.3598 16.7652C22.2895 16.6948 22.25 16.5995 22.25 16.5" stroke="#9465ED" stroke-width="1.5" stroke-linecap="round" stroke-linejoin="round"/>
<path d="M23 16.5C23 16.5995 22.9605 16.6948 22.8902 16.7652C22.8198 16.8355 22.7245 16.875 22.625 16.875" stroke="#9465ED" stroke-width="1.5" stroke-linecap="round" stroke-linejoin="round"/>
<path d="M19.762 19.1179C19.6457 19.0012 19.5074 18.9085 19.3552 18.8453C19.203 18.7821 19.0398 18.7495 18.875 18.7495C18.7102 18.7495 18.547 18.7821 18.3947 18.8453C18.2425 18.9085 18.1043 19.0012 17.988 19.1179L16 21.1079C15.8246 21.2834 15.7052 21.507 15.6569 21.7503C15.6085 21.9936 15.6334 22.2459 15.7283 22.4751C15.8232 22.7043 15.9839 22.9002 16.1902 23.0381C16.3964 23.1761 16.6389 23.2498 16.887 23.2499H20.867C21.1151 23.2498 21.3575 23.1761 21.5638 23.0381C21.77 22.9002 21.9307 22.7043 22.0257 22.4751C22.1206 22.2459 22.1454 21.9936 22.0971 21.7503C22.0487 21.507 21.9293 21.2834 21.754 21.1079L19.762 19.1179Z" stroke="#9465ED" stroke-width="1.5" stroke-linecap="round" stroke-linejoin="round"/>
</g>
<defs>
<clipPath id="clip0_133_4029">
<rect width="24" height="24" fill="white"/>
</clipPath>
</defs>
</svg>
