<svg width="375" height="1163" viewBox="0 0 375 1163" fill="none" xmlns="http://www.w3.org/2000/svg">
<g clip-path="url(#clip0_308_2090)">
<rect width="375" height="1163" fill="#9465ED"/>
<path d="M202.447 -100.486C169.245 -49.8083 131.693 -2.08796 99.4165 49.2276C67.5634 99.8698 46.3666 151.923 30.1123 209.224C11.9122 273.383 4.73266 341.667 -18.8324 404.18C-20.9212 409.721 -28.1339 420.534 -27.6754 426.801C-27.53 428.789 -23.5875 427.062 -21.7115 426.39C13.1786 413.896 -43.9178 433.318 5.43431 416.108C66.8806 394.68 131.487 380.111 196.689 377.857C217.406 377.14 241.709 376.695 259.618 389.167C278.565 402.362 284.718 426.515 287.792 447.983C297.499 515.761 274.704 576.529 248.513 638.004C233.959 672.165 221.094 712.575 184.761 728.696C143.638 746.943 108.639 775.35 62.5023 780.931C50.6879 782.36 34.7614 784.445 25.588 774.762C15.775 764.403 15.263 746.118 17.0536 733.015C23.7871 683.737 54.6847 623.64 112.989 632.76C144.829 637.741 168.648 661.659 192.473 681.191C222.973 706.195 254.373 730.137 291.185 745.148C310.541 753.041 332.163 759.58 346.917 740.418C359.798 723.687 363.678 701.203 365.836 680.78C366.78 671.855 369.976 655.056 363.266 647.259C356.467 639.357 340.014 641.367 331.493 644.071C307.646 651.638 289.716 675.404 275.35 694.352C251.957 725.209 231.414 759.296 217.768 795.635C190.06 869.419 200.382 955.319 231.341 1026.48C245.827 1059.77 267.39 1095.88 297.56 1117.37C319.448 1132.97 343.532 1132.18 369.024 1132.18" stroke="white" stroke-opacity="0.06" stroke-width="43" stroke-linecap="round"/>
</g>
<defs>
<clipPath id="clip0_308_2090">
<rect width="375" height="1163" fill="white"/>
</clipPath>
</defs>
</svg>
