<svg width="25" height="24" viewBox="0 0 25 24" fill="none" xmlns="http://www.w3.org/2000/svg">
<g clip-path="url(#clip0_370_2198)">
<path d="M24.863 17.981C24.3439 17.1758 23.9938 16.2736 23.834 15.329C23.4841 14.0868 22.7461 12.9892 21.7277 12.1966C20.7093 11.404 19.464 10.9581 18.174 10.924H12.424C12.3384 10.9248 12.2536 10.9085 12.1744 10.8761C12.0952 10.8437 12.0233 10.7959 11.9629 10.7353C11.9025 10.6748 11.8547 10.6028 11.8224 10.5236C11.7902 10.4444 11.774 10.3595 11.775 10.274V9.125C11.7674 7.85277 11.4905 6.59656 10.9626 5.43901C10.4347 4.28146 9.66764 3.24881 8.71196 2.409C8.61585 2.33212 8.49477 2.29338 8.37188 2.30021C8.249 2.30704 8.13295 2.35894 8.04595 2.446C7.26906 3.27642 6.66502 4.25302 6.26895 5.319C4.64233 6.21736 3.08946 7.24324 1.62495 8.387C1.42857 8.54212 1.27 8.73983 1.16121 8.96521C1.05242 9.19059 0.996251 9.43774 0.996955 9.688V10.5C1.00019 10.8805 1.13332 11.2484 1.3743 11.5429C1.61528 11.8373 1.94963 12.0406 2.32195 12.119C3.21782 12.3028 4.12532 12.4244 5.03795 12.483C5.16358 14.1487 5.75586 15.7453 6.74695 17.09V21.2C6.74695 21.3326 6.79963 21.4598 6.8934 21.5535C6.98717 21.6473 7.11435 21.7 7.24695 21.7H9.54696C9.66032 21.6998 9.77026 21.6611 9.85875 21.5903C9.94724 21.5194 10.009 21.4206 10.034 21.31L10.434 19.537C10.4589 19.4262 10.5209 19.3273 10.6096 19.2564C10.6982 19.1855 10.8084 19.1469 10.922 19.147H17.522C17.6189 19.1474 17.7135 19.176 17.7945 19.2293C17.8755 19.2825 17.9392 19.3582 17.978 19.447L18.862 21.41C18.9015 21.4979 18.9655 21.5725 19.0464 21.6248C19.1273 21.6771 19.2216 21.705 19.318 21.705H21.043C21.1658 21.7059 21.2847 21.6615 21.3769 21.5804C21.4691 21.4992 21.5282 21.387 21.543 21.265C21.543 21.244 21.753 19.551 21.921 17.885C22.3002 18.368 22.8191 18.7225 23.407 18.9C23.6327 18.9663 23.8694 18.9868 24.1031 18.9602C24.3369 18.9335 24.5629 18.8604 24.768 18.745C24.8287 18.7045 24.8801 18.6513 24.9186 18.5892C24.9571 18.5271 24.9817 18.4575 24.991 18.385C24.9992 18.3124 24.992 18.239 24.97 18.1694C24.9479 18.0998 24.9115 18.0356 24.863 17.981ZM7.38296 8.837C7.38296 9.03478 7.32431 9.22812 7.21442 9.39257C7.10454 9.55702 6.94836 9.68519 6.76564 9.76088C6.58291 9.83656 6.38185 9.85637 6.18786 9.81778C5.99388 9.7792 5.8157 9.68395 5.67585 9.5441C5.536 9.40425 5.44075 9.22607 5.40217 9.03209C5.36358 8.8381 5.38339 8.63704 5.45908 8.45431C5.53476 8.27159 5.66294 8.11541 5.82738 8.00553C5.99183 7.89564 6.18517 7.837 6.38296 7.837C6.64817 7.837 6.90253 7.94235 7.09006 8.12989C7.2776 8.31743 7.38296 8.57178 7.38296 8.837Z" fill="black"/>
</g>
<defs>
<clipPath id="clip0_370_2198">
<rect width="24" height="24" fill="white" transform="translate(0.996948)"/>
</clipPath>
</defs>
</svg>
