<svg width="25" height="24" viewBox="0 0 25 24" fill="none" xmlns="http://www.w3.org/2000/svg">
<g clip-path="url(#clip0_370_2225)">
<path d="M23.841 4.99001L23.726 4.70001C23.187 3.31801 22.186 0.747009 19.217 0.747009H15.947C15.7392 0.747779 15.536 0.808097 15.3614 0.920817C15.1868 1.03354 15.0482 1.19394 14.962 1.38301C14.9041 1.49937 14.864 1.62375 14.843 1.75201C13.6329 1.434 12.3611 1.434 11.151 1.75201C11.13 1.62375 11.0899 1.49937 11.032 1.38301C10.9458 1.19394 10.8072 1.03354 10.6326 0.920817C10.458 0.808097 10.2548 0.747779 10.047 0.747009H6.77701C3.80801 0.747009 2.80701 3.31801 2.26801 4.70001L2.15301 4.99001C1.99999 5.27912 1.92284 5.60234 1.92879 5.92939C1.93473 6.25645 2.02358 6.57665 2.18701 6.86001C2.45789 7.23314 2.86299 7.48659 3.31701 7.56701C2.77561 8.71854 2.49559 9.97556 2.49701 11.248C2.50135 12.9349 2.99194 14.5848 3.91001 16C3.65961 16.7123 3.57778 17.4729 3.67095 18.2221C3.76413 18.9714 4.02977 19.6888 4.44701 20.318C4.91192 20.9374 5.53591 21.4192 6.25271 21.7124C6.96951 22.0055 7.75233 22.0991 8.51801 21.983C9.84565 22.8552 11.4092 23.2985 12.997 23.253C14.5854 23.297 16.1489 22.852 17.476 21.978C18.2417 22.0943 19.0246 22.0009 19.7414 21.7077C20.4583 21.4145 21.0822 20.9325 21.547 20.313C21.9647 19.6832 22.2305 18.9651 22.3235 18.2151C22.4165 17.4651 22.3342 16.7038 22.083 15.991C22.8922 14.7539 23.3716 13.3304 23.4756 11.8558C23.5795 10.3811 23.3046 8.90444 22.677 7.56601C23.1309 7.4853 23.5359 7.2319 23.807 6.85901C23.9704 6.5758 24.0592 6.25578 24.0651 5.92889C24.071 5.60201 23.9939 5.27897 23.841 4.99001ZM12.997 18.457C13.4852 19.4235 14.1698 20.2774 15.007 20.964C13.69 21.315 12.304 21.315 10.987 20.964C11.8242 20.2774 12.5088 19.4235 12.997 18.457ZM18.006 20.006C15.091 20.006 13.98 15.534 13.97 15.489C13.9181 15.27 13.7937 15.0749 13.6172 14.9353C13.4406 14.7958 13.2221 14.7198 12.997 14.7198C12.7719 14.7198 12.5534 14.7958 12.3769 14.9353C12.2003 15.0749 12.076 15.27 12.024 15.489C12.014 15.534 10.903 20.006 7.98801 20.006C5.68801 20.006 5.36301 17.872 5.80101 16.645C6.37701 15.021 8.21401 13.529 10.842 12.553C11.0333 12.4818 11.1982 12.3537 11.3145 12.1861C11.4309 12.0184 11.4932 11.8191 11.493 11.615C11.493 11.209 12.15 10.737 12.993 10.737C13.836 10.737 14.493 11.209 14.493 11.615C14.4928 11.8191 14.5551 12.0184 14.6715 12.1861C14.7879 12.3537 14.9527 12.4818 15.144 12.553C17.772 13.529 19.609 15.021 20.186 16.646C20.637 17.89 20.308 20.006 18.006 20.006ZM17.747 10.987C17.4998 10.987 17.2581 10.9137 17.0525 10.7763C16.847 10.639 16.6868 10.4438 16.5922 10.2154C16.4976 9.98696 16.4728 9.73562 16.521 9.49315C16.5693 9.25067 16.6883 9.02794 16.8631 8.85313C17.0379 8.67831 17.2607 8.55926 17.5031 8.51103C17.7456 8.4628 17.997 8.48755 18.2254 8.58216C18.4538 8.67677 18.649 8.83698 18.7863 9.04255C18.9237 9.24811 18.997 9.48978 18.997 9.73701C18.997 10.0685 18.8653 10.3865 18.6309 10.6209C18.3965 10.8553 18.0785 10.987 17.747 10.987ZM8.24701 8.48701C8.49424 8.48701 8.73591 8.56032 8.94147 8.69767C9.14703 8.83502 9.30725 9.03025 9.40186 9.25866C9.49647 9.48706 9.52122 9.7384 9.47299 9.98087C9.42476 10.2233 9.30571 10.4461 9.13089 10.6209C8.95608 10.7957 8.73335 10.9148 8.49087 10.963C8.2484 11.0112 7.99706 10.9865 7.76865 10.8919C7.54025 10.7972 7.34502 10.637 7.20767 10.4315C7.07032 10.2259 6.99701 9.98424 6.99701 9.73701C6.99701 9.40549 7.12871 9.08755 7.36313 8.85313C7.59755 8.61871 7.91549 8.48701 8.24701 8.48701Z" fill="black"/>
</g>
<defs>
<clipPath id="clip0_370_2225">
<rect width="24" height="24" fill="white" transform="translate(0.996948)"/>
</clipPath>
</defs>
</svg>
