<svg width="25" height="24" viewBox="0 0 25 24" fill="none" xmlns="http://www.w3.org/2000/svg">
<g clip-path="url(#clip0_370_2210)">
<path d="M24.3849 9.55301C23.7894 8.95801 23.079 8.49051 22.2969 8.17901C22.1226 8.11221 21.9689 8.00072 21.8513 7.85573C21.7337 7.71075 21.6563 7.53737 21.6269 7.35301C21.3988 6.08339 20.8591 4.89025 20.0562 3.88058C19.2534 2.87092 18.2125 2.07631 17.0269 1.56801C16.8591 1.48335 16.6708 1.44769 16.4837 1.46513C16.2966 1.48256 16.1181 1.55238 15.9688 1.66658C15.8196 1.78079 15.7055 1.93474 15.6397 2.11081C15.5739 2.28687 15.5591 2.47791 15.5969 2.66201L16.3459 6.40701C14.7771 6.77128 13.2867 7.41487 11.9459 8.30701C11.8624 8.36369 11.7891 8.43401 11.7289 8.51501C11.6741 8.58794 11.6402 8.67448 11.6311 8.76526C11.6219 8.85604 11.6378 8.9476 11.6769 9.03001L16.7769 19.787C16.8061 19.8485 16.8502 19.9016 16.9052 19.9416C16.9603 19.9816 17.0244 20.0072 17.0919 20.016C19.2086 20.2926 21.2564 20.9563 23.1329 21.974L23.9489 22.463C24.0246 22.5084 24.111 22.5329 24.1993 22.5341C24.2876 22.5352 24.3746 22.513 24.4516 22.4696C24.5285 22.4262 24.5925 22.3633 24.6372 22.2871C24.6819 22.2109 24.7056 22.1243 24.7059 22.036L24.7509 10.124C24.7511 10.0579 24.7383 9.9924 24.7131 9.93129C24.6878 9.87018 24.6507 9.81469 24.6039 9.76801L24.3849 9.55301ZM15.5909 10.915C15.4426 10.915 15.2976 10.871 15.1742 10.7886C15.0509 10.7062 14.9548 10.5891 14.898 10.452C14.8412 10.315 14.8264 10.1642 14.8553 10.0187C14.8842 9.87321 14.9557 9.73957 15.0606 9.63468C15.1655 9.5298 15.2991 9.45836 15.4446 9.42942C15.5901 9.40049 15.7409 9.41534 15.8779 9.47211C16.015 9.52887 16.1321 9.625 16.2145 9.74834C16.2969 9.87167 16.3409 10.0167 16.3409 10.165C16.341 10.2635 16.3217 10.3611 16.2841 10.4522C16.2464 10.5432 16.1912 10.626 16.1215 10.6956C16.0519 10.7653 15.9691 10.8205 15.8781 10.8582C15.787 10.8958 15.6894 10.9151 15.5909 10.915Z" fill="black"/>
<path d="M10.5869 9.98802C10.4963 9.79614 10.3469 9.63808 10.1605 9.53668C9.9741 9.43529 9.76025 9.39584 9.54992 9.42402L3.80292 10.2C3.04986 10.309 2.36684 10.7014 1.89344 11.2971C1.42004 11.8928 1.192 12.6468 1.25592 13.405C1.70892 19.613 4.09892 20.915 6.02492 20.915H14.1829C14.3511 20.9143 14.5164 20.8712 14.6635 20.7896C14.8106 20.7081 14.9348 20.5908 15.0245 20.4485C15.1142 20.3062 15.1666 20.1436 15.1768 19.9757C15.187 19.8079 15.1547 19.6401 15.0829 19.488L10.5869 9.98802ZM3.25092 13.258C3.22314 13.0082 3.29199 12.7573 3.44335 12.5567C3.59471 12.356 3.81711 12.2209 4.06492 12.179L4.96492 12.058C5.00062 12.0527 5.03704 12.0554 5.0716 12.0657C5.10616 12.0761 5.13802 12.094 5.16492 12.118C5.19165 12.1415 5.21306 12.1704 5.22772 12.2028C5.24238 12.2353 5.24995 12.2704 5.24992 12.306V13.665C5.24992 13.7313 5.22358 13.7949 5.1767 13.8418C5.12981 13.8887 5.06622 13.915 4.99992 13.915H3.53592C3.47392 13.9148 3.4142 13.8916 3.36837 13.8498C3.32255 13.808 3.29387 13.7507 3.28792 13.689C3.27292 13.54 3.26092 13.4 3.25092 13.258ZM7.49692 18.915C7.43061 18.915 7.36703 18.8887 7.32014 18.8418C7.27326 18.7949 7.24692 18.7313 7.24692 18.665V16.165C7.24692 16.0987 7.27326 16.0351 7.32014 15.9882C7.36703 15.9414 7.43061 15.915 7.49692 15.915H8.49692C8.56322 15.915 8.62681 15.9414 8.6737 15.9882C8.72058 16.0351 8.74692 16.0987 8.74692 16.165V18.665C8.74692 18.7313 8.72058 18.7949 8.6737 18.8418C8.62681 18.8887 8.56322 18.915 8.49692 18.915H7.49692ZM8.46392 11.588C8.49919 11.5832 8.53508 11.5859 8.56919 11.5961C8.6033 11.6063 8.63483 11.6237 8.66165 11.6471C8.68847 11.6705 8.70996 11.6994 8.72467 11.7318C8.73938 11.7642 8.74697 11.7994 8.74692 11.835V13.665C8.74692 13.7313 8.72058 13.7949 8.6737 13.8418C8.62681 13.8887 8.56322 13.915 8.49692 13.915H7.49692C7.43061 13.915 7.36703 13.8887 7.32014 13.8418C7.27326 13.7949 7.24692 13.7313 7.24692 13.665V11.97C7.24708 11.9095 7.26914 11.851 7.30902 11.8054C7.3489 11.7598 7.40392 11.7302 7.46392 11.722L8.46392 11.588ZM4.99692 15.915C5.06322 15.915 5.12681 15.9414 5.1737 15.9882C5.22058 16.0351 5.24692 16.0987 5.24692 16.165V18.219C5.24683 18.268 5.23236 18.3158 5.20532 18.3566C5.17828 18.3974 5.13985 18.4294 5.09481 18.4486C5.04976 18.4678 5.00008 18.4733 4.95192 18.4645C4.90377 18.4557 4.85926 18.4329 4.82392 18.399C4.27785 17.7823 3.89911 17.0359 3.72392 16.231C3.71396 16.1939 3.71267 16.1549 3.72015 16.1172C3.72764 16.0795 3.74369 16.044 3.76708 16.0134C3.79047 15.9829 3.82056 15.9581 3.85504 15.9411C3.88952 15.924 3.92745 15.9151 3.96592 15.915H4.99692ZM10.9969 18.915C10.9306 18.915 10.867 18.8887 10.8201 18.8418C10.7733 18.7949 10.7469 18.7313 10.7469 18.665V16.11C10.7462 16.053 10.765 15.9974 10.8003 15.9525C10.8355 15.9076 10.885 15.8761 10.9406 15.8633C10.9962 15.8504 11.0545 15.857 11.1059 15.8819C11.1572 15.9067 11.1985 15.9484 11.2229 16L12.4339 18.555C12.452 18.5931 12.4601 18.6352 12.4575 18.6773C12.4549 18.7194 12.4418 18.7601 12.4192 18.7957C12.3967 18.8314 12.3655 18.8607 12.3285 18.881C12.2916 18.9014 12.2501 18.912 12.2079 18.912L10.9969 18.915Z" fill="black"/>
</g>
<defs>
<clipPath id="clip0_370_2210">
<rect width="24" height="24" fill="white" transform="translate(0.996948)"/>
</clipPath>
</defs>
</svg>
