<svg width="25" height="24" viewBox="0 0 25 24" fill="none" xmlns="http://www.w3.org/2000/svg">
<g clip-path="url(#clip0_370_2177)">
<path d="M20.811 12C20.8136 10.7138 20.7401 9.42857 20.591 8.15103C20.585 8.10147 20.5643 8.05485 20.5314 8.01722C20.4986 7.9796 20.4553 7.9527 20.407 7.94003C15.464 6.62703 13.421 6.12903 9.15398 3.61703L7.71298 1.70003C7.67018 1.64256 7.61553 1.59495 7.55273 1.56045C7.48993 1.52594 7.42044 1.50534 7.34898 1.50003C7.27754 1.49583 7.20601 1.50665 7.139 1.5318C7.072 1.55694 7.01102 1.59586 6.95998 1.64603C6.49987 2.19879 6.1557 2.83848 5.94798 3.52703C5.46485 3.66557 5.0253 3.92565 4.67131 4.28245C4.31732 4.63924 4.06071 5.08082 3.92598 5.56503L2.89698 5.77603C2.67997 5.81814 2.47495 5.9077 2.29659 6.0383C2.11822 6.16889 1.97093 6.3373 1.86525 6.53146C1.75957 6.72562 1.69811 6.94075 1.68527 7.16143C1.67243 7.38212 1.70853 7.60292 1.79098 7.80803L2.04998 8.43503C2.17457 8.74176 2.39677 8.9989 2.6822 9.16665C2.96763 9.3344 3.30038 9.40342 3.62898 9.36303C4.65031 9.2146 5.69021 9.25494 6.69698 9.48203C7.13819 9.59152 7.56886 9.73976 7.98398 9.92503C7.40555 9.89727 6.82822 9.99905 6.29414 10.2229C5.76007 10.4468 5.28273 10.7871 4.89698 11.219C4.63419 11.5222 4.43568 11.8755 4.31347 12.2576C4.19125 12.6397 4.14788 13.0427 4.18598 13.442C4.25359 13.6645 4.36925 13.8693 4.52477 14.0421C4.68029 14.2149 4.87188 14.3514 5.08598 14.442C5.67 14.6839 6.31686 14.7293 6.92893 14.5713C7.541 14.4133 8.08506 14.0604 8.47898 13.566C9.31498 13.792 11.529 14.235 12.848 13.214C13.1233 12.6844 13.1914 12.0712 13.039 11.494C13.0213 11.3953 13.0237 11.294 13.0459 11.1962C13.0681 11.0983 13.1097 11.006 13.1682 10.9245C13.2267 10.843 13.301 10.7742 13.3867 10.7219C13.4723 10.6697 13.5675 10.6351 13.6667 10.6203C13.766 10.6055 13.8671 10.6108 13.9643 10.6358C14.0614 10.6608 14.1526 10.7051 14.2323 10.7659C14.312 10.8268 14.3788 10.903 14.4285 10.9901C14.4783 11.0772 14.5101 11.1734 14.522 11.273C14.6328 11.9066 14.6138 12.5561 14.466 13.182C15.7398 13.3742 16.9858 13.7193 18.177 14.21C17.9745 14.9594 18.0265 15.7548 18.3248 16.4714C18.623 17.1881 19.1507 17.7855 19.825 18.17C19.8584 18.1937 19.8971 18.2087 19.9378 18.214C19.9784 18.2192 20.0196 18.2144 20.058 18.2C20.0963 18.1859 20.1304 18.1626 20.1575 18.132C20.1845 18.1015 20.2036 18.0647 20.213 18.025C20.6392 16.0457 20.8398 14.0245 20.811 12ZM7.56098 6.00003C7.56098 6.19781 7.50233 6.39115 7.39245 6.5556C7.28257 6.72005 7.12639 6.84822 6.94366 6.92391C6.76094 6.9996 6.55987 7.0194 6.36589 6.98081C6.17191 6.94223 5.99373 6.84699 5.85387 6.70714C5.71402 6.56728 5.61878 6.3891 5.5802 6.19512C5.54161 6.00114 5.56141 5.80007 5.6371 5.61735C5.71279 5.43462 5.84096 5.27844 6.00541 5.16856C6.16986 5.05868 6.3632 5.00003 6.56098 5.00003C6.8262 5.00003 7.08055 5.10539 7.26809 5.29292C7.45562 5.48046 7.56098 5.73481 7.56098 6.00003Z" fill="black"/>
<path d="M19.811 0.5C18.727 0.5 17.217 1.269 16.18 4.933C16.1442 5.0594 16.1336 5.19161 16.149 5.32208C16.1643 5.45255 16.2051 5.57872 16.2692 5.6934C16.3333 5.80808 16.4193 5.90902 16.5224 5.99045C16.6255 6.07188 16.7436 6.13222 16.87 6.168C17.1252 6.24027 17.3988 6.20818 17.6304 6.07878C17.862 5.94938 18.0327 5.73327 18.105 5.478C18.742 3.228 19.529 2.5 19.811 2.5C20.222 2.5 20.934 3.481 21.494 5.4C22.073 7.5511 22.348 9.77265 22.311 12C22.391 14.637 21.9793 17.2658 21.097 19.752C20.627 20.909 20.127 21.5 19.809 21.5C19.527 21.5 18.74 20.771 18.103 18.521C18.0307 18.2657 17.86 18.0496 17.6284 17.9202C17.3968 17.7908 17.1232 17.7587 16.868 17.831C16.6127 17.9033 16.3966 18.074 16.2672 18.3056C16.1378 18.5372 16.1057 18.8107 16.178 19.066C17.218 22.73 18.727 23.5 19.811 23.5C22.765 23.5 24.311 17.715 24.311 12C24.311 6.461 22.903 0.5 19.811 0.5Z" fill="black"/>
</g>
<defs>
<clipPath id="clip0_370_2177">
<rect width="24" height="24" fill="white" transform="translate(0.996948)"/>
</clipPath>
</defs>
</svg>
