<svg width="24" height="24" viewBox="0 0 24 24" fill="none" xmlns="http://www.w3.org/2000/svg">
<g clip-path="url(#clip0_370_2271)">
<path d="M19.75 7.75003C19.7525 6.27872 19.3361 4.83711 18.5495 3.5937C17.763 2.3503 16.6387 1.35649 15.3082 0.728437C13.9777 0.100389 12.4959 -0.135942 11.036 0.0470719C9.57611 0.230086 8.19849 0.824882 7.06417 1.76193C5.92985 2.69898 5.0857 3.93955 4.63041 5.33864C4.17511 6.73773 4.12748 8.23751 4.49308 9.66267C4.85868 11.0878 5.62241 12.3795 6.69499 13.3866C7.76756 14.3937 9.10467 15.0747 10.55 15.35C10.6065 15.3614 10.6574 15.392 10.6939 15.4367C10.7304 15.4814 10.7502 15.5373 10.75 15.595V18.25C10.75 18.3163 10.7236 18.3799 10.6768 18.4268C10.6299 18.4737 10.5663 18.5 10.5 18.5H8.99999C8.66847 18.5 8.35053 18.6317 8.11611 18.8661C7.88169 19.1006 7.74999 19.4185 7.74999 19.75C7.74999 20.0815 7.88169 20.3995 8.11611 20.6339C8.35053 20.8683 8.66847 21 8.99999 21H10.5C10.5663 21 10.6299 21.0264 10.6768 21.0732C10.7236 21.1201 10.75 21.1837 10.75 21.25V22.75C10.75 23.0815 10.8817 23.3995 11.1161 23.6339C11.3505 23.8683 11.6685 24 12 24C12.3315 24 12.6495 23.8683 12.8839 23.6339C13.1183 23.3995 13.25 23.0815 13.25 22.75V21.25C13.25 21.1837 13.2763 21.1201 13.3232 21.0732C13.3701 21.0264 13.4337 21 13.5 21H15C15.3315 21 15.6495 20.8683 15.8839 20.6339C16.1183 20.3995 16.25 20.0815 16.25 19.75C16.25 19.4185 16.1183 19.1006 15.8839 18.8661C15.6495 18.6317 15.3315 18.5 15 18.5H13.5C13.4337 18.5 13.3701 18.4737 13.3232 18.4268C13.2763 18.3799 13.25 18.3163 13.25 18.25V15.6C13.2498 15.5423 13.2696 15.4864 13.3061 15.4417C13.3426 15.397 13.3934 15.3664 13.45 15.355C15.2201 15.0167 16.8171 14.0726 17.9668 12.6848C19.1164 11.297 19.7469 9.55216 19.75 7.75003ZM6.74999 7.75003C6.74999 6.71167 7.0579 5.69664 7.63477 4.83328C8.21165 3.96992 9.03159 3.29702 9.9909 2.89966C10.9502 2.5023 12.0058 2.39833 13.0242 2.6009C14.0426 2.80348 14.9781 3.30349 15.7123 4.03772C16.4465 4.77194 16.9465 5.7074 17.1491 6.7258C17.3517 7.7442 17.2477 8.7998 16.8504 9.75911C16.453 10.7184 15.7801 11.5384 14.9167 12.1152C14.0534 12.6921 13.0383 13 12 13C10.6081 12.9984 9.27365 12.4448 8.28943 11.4606C7.30521 10.4764 6.75158 9.14193 6.74999 7.75003Z" fill="black"/>
<path d="M19.75 7.75003C19.7525 6.27872 19.3361 4.83711 18.5495 3.5937C17.763 2.3503 16.6387 1.35649 15.3082 0.728437C13.9777 0.100389 12.4959 -0.135942 11.036 0.0470719C9.57611 0.230086 8.19849 0.824882 7.06417 1.76193C5.92985 2.69898 5.0857 3.93955 4.63041 5.33864C4.17511 6.73773 4.12748 8.23751 4.49308 9.66267C4.85868 11.0878 5.62241 12.3795 6.69499 13.3866C7.76756 14.3937 9.10467 15.0747 10.55 15.35C10.6065 15.3614 10.6574 15.392 10.6939 15.4367C10.7304 15.4814 10.7502 15.5373 10.75 15.595V18.25C10.75 18.3163 10.7236 18.3799 10.6768 18.4268C10.6299 18.4737 10.5663 18.5 10.5 18.5H8.99999C8.66847 18.5 8.35053 18.6317 8.11611 18.8661C7.88169 19.1006 7.74999 19.4185 7.74999 19.75C7.74999 20.0815 7.88169 20.3995 8.11611 20.6339C8.35053 20.8683 8.66847 21 8.99999 21H10.5C10.5663 21 10.6299 21.0264 10.6768 21.0732C10.7236 21.1201 10.75 21.1837 10.75 21.25V22.75C10.75 23.0815 10.8817 23.3995 11.1161 23.6339C11.3505 23.8683 11.6685 24 12 24C12.3315 24 12.6495 23.8683 12.8839 23.6339C13.1183 23.3995 13.25 23.0815 13.25 22.75V21.25C13.25 21.1837 13.2763 21.1201 13.3232 21.0732C13.3701 21.0264 13.4337 21 13.5 21H15C15.3315 21 15.6495 20.8683 15.8839 20.6339C16.1183 20.3995 16.25 20.0815 16.25 19.75C16.25 19.4185 16.1183 19.1006 15.8839 18.8661C15.6495 18.6317 15.3315 18.5 15 18.5H13.5C13.4337 18.5 13.3701 18.4737 13.3232 18.4268C13.2763 18.3799 13.25 18.3163 13.25 18.25V15.6C13.2498 15.5423 13.2696 15.4864 13.3061 15.4417C13.3426 15.397 13.3934 15.3664 13.45 15.355C15.2201 15.0167 16.8171 14.0726 17.9668 12.6848C19.1164 11.297 19.7469 9.55216 19.75 7.75003ZM6.74999 7.75003C6.74999 6.71167 7.0579 5.69664 7.63477 4.83328C8.21165 3.96992 9.03159 3.29702 9.9909 2.89966C10.9502 2.5023 12.0058 2.39833 13.0242 2.6009C14.0426 2.80348 14.9781 3.30349 15.7123 4.03772C16.4465 4.77194 16.9465 5.7074 17.1491 6.7258C17.3517 7.7442 17.2477 8.7998 16.8504 9.75911C16.453 10.7184 15.7801 11.5384 14.9167 12.1152C14.0534 12.6921 13.0383 13 12 13C10.6081 12.9984 9.27365 12.4448 8.28943 11.4606C7.30521 10.4764 6.75158 9.14193 6.74999 7.75003Z" fill="black"/>
</g>
<defs>
<clipPath id="clip0_370_2271">
<rect width="24" height="24" fill="white"/>
</clipPath>
</defs>
</svg>
