<svg width="24" height="24" viewBox="0 0 24 24" fill="none" xmlns="http://www.w3.org/2000/svg">
<g clip-path="url(#clip0_370_2268)">
<path d="M24 0.500001C24 0.367393 23.9473 0.240216 23.8535 0.146447C23.7597 0.0526792 23.6326 8.00651e-07 23.5 8.00651e-07H16.5C16.4009 -0.000176365 16.3041 0.029052 16.2217 0.0839806C16.1393 0.138909 16.0751 0.217064 16.0372 0.308538C15.9993 0.400011 15.9894 0.500683 16.0087 0.597791C16.0281 0.6949 16.0759 0.784071 16.146 0.854001L18.586 3.293C18.6092 3.31622 18.6277 3.34381 18.6403 3.37418C18.6529 3.40456 18.6594 3.43712 18.6594 3.47C18.6594 3.50288 18.6529 3.53544 18.6403 3.56582C18.6277 3.59619 18.6092 3.62378 18.586 3.647L14.132 8.1C14.09 8.14173 14.0347 8.16723 13.9757 8.172C13.9168 8.17676 13.858 8.16046 13.81 8.126C12.0156 6.84897 9.80682 6.2928 7.62162 6.56774C5.43642 6.84268 3.4343 7.92866 2.01216 9.61039C0.590025 11.2921 -0.148298 13.4468 -0.0564388 15.6473C0.0354208 17.8478 0.950756 19.9335 2.50811 21.4909C4.06546 23.0482 6.15113 23.9635 8.35164 24.0554C10.5521 24.1473 12.7068 23.4089 14.3886 21.9868C16.0703 20.5647 17.1563 18.5625 17.4312 16.3773C17.7062 14.1921 17.15 11.9834 15.873 10.189C15.8385 10.1409 15.8222 10.0822 15.827 10.0232C15.8317 9.96428 15.8572 9.90892 15.899 9.867L20.354 5.413C20.4008 5.36629 20.4643 5.34005 20.5305 5.34005C20.5966 5.34005 20.6601 5.36629 20.707 5.413L23.146 7.853C23.2158 7.92305 23.3049 7.97079 23.4019 7.99019C23.4989 8.00959 23.5995 7.99977 23.691 7.96198C23.7824 7.92418 23.8606 7.86011 23.9156 7.77788C23.9706 7.69564 23.9999 7.59894 24 7.5V0.500001ZM8.74996 21.5C7.51383 21.5 6.30546 21.1334 5.27765 20.4467C4.24984 19.7599 3.44876 18.7838 2.97571 17.6418C2.50267 16.4997 2.3789 15.2431 2.62005 14.0307C2.86121 12.8183 3.45647 11.7047 4.33054 10.8306C5.20462 9.95651 6.31827 9.36125 7.53065 9.12009C8.74303 8.87894 9.99969 9.00271 11.1417 9.47575C12.2838 9.9488 13.2599 10.7499 13.9466 11.7777C14.6334 12.8055 15 14.0139 15 15.25C14.9981 16.907 14.339 18.4957 13.1673 19.6674C11.9956 20.8391 10.407 21.4981 8.74996 21.5Z" fill="black"/>
<path d="M24 0.500001C24 0.367393 23.9473 0.240216 23.8535 0.146447C23.7597 0.0526792 23.6326 8.00651e-07 23.5 8.00651e-07H16.5C16.4009 -0.000176365 16.3041 0.029052 16.2217 0.0839806C16.1393 0.138909 16.0751 0.217064 16.0372 0.308538C15.9993 0.400011 15.9894 0.500683 16.0087 0.597791C16.0281 0.6949 16.0759 0.784071 16.146 0.854001L18.586 3.293C18.6092 3.31622 18.6277 3.34381 18.6403 3.37418C18.6529 3.40456 18.6594 3.43712 18.6594 3.47C18.6594 3.50288 18.6529 3.53544 18.6403 3.56582C18.6277 3.59619 18.6092 3.62378 18.586 3.647L14.132 8.1C14.09 8.14173 14.0347 8.16723 13.9757 8.172C13.9168 8.17676 13.858 8.16046 13.81 8.126C12.0156 6.84897 9.80682 6.2928 7.62162 6.56774C5.43642 6.84268 3.4343 7.92866 2.01216 9.61039C0.590025 11.2921 -0.148298 13.4468 -0.0564388 15.6473C0.0354208 17.8478 0.950756 19.9335 2.50811 21.4909C4.06546 23.0482 6.15113 23.9635 8.35164 24.0554C10.5521 24.1473 12.7068 23.4089 14.3886 21.9868C16.0703 20.5647 17.1563 18.5625 17.4312 16.3773C17.7062 14.1921 17.15 11.9834 15.873 10.189C15.8385 10.1409 15.8222 10.0822 15.827 10.0232C15.8317 9.96428 15.8572 9.90892 15.899 9.867L20.354 5.413C20.4008 5.36629 20.4643 5.34005 20.5305 5.34005C20.5966 5.34005 20.6601 5.36629 20.707 5.413L23.146 7.853C23.2158 7.92305 23.3049 7.97079 23.4019 7.99019C23.4989 8.00959 23.5995 7.99977 23.691 7.96198C23.7824 7.92418 23.8606 7.86011 23.9156 7.77788C23.9706 7.69564 23.9999 7.59894 24 7.5V0.500001ZM8.74996 21.5C7.51383 21.5 6.30546 21.1334 5.27765 20.4467C4.24984 19.7599 3.44876 18.7838 2.97571 17.6418C2.50267 16.4997 2.3789 15.2431 2.62005 14.0307C2.86121 12.8183 3.45647 11.7047 4.33054 10.8306C5.20462 9.95651 6.31827 9.36125 7.53065 9.12009C8.74303 8.87894 9.99969 9.00271 11.1417 9.47575C12.2838 9.9488 13.2599 10.7499 13.9466 11.7777C14.6334 12.8055 15 14.0139 15 15.25C14.9981 16.907 14.339 18.4957 13.1673 19.6674C11.9956 20.8391 10.407 21.4981 8.74996 21.5Z" fill="black"/>
</g>
<defs>
<clipPath id="clip0_370_2268">
<rect width="24" height="24" fill="white"/>
</clipPath>
</defs>
</svg>
