<svg width="24" height="24" viewBox="0 0 24 24" fill="none" xmlns="http://www.w3.org/2000/svg">
<g clip-path="url(#clip0_370_2218)">
<path d="M8.192 16.348C8.19332 15.3385 8.59498 14.3708 9.30886 13.6571C10.0227 12.9434 10.9906 12.542 12 12.541C12.6109 12.5426 13.2122 12.694 13.751 12.982C13.8079 13.0117 13.874 13.0186 13.9357 13.0011C13.9975 12.9836 14.0502 12.9431 14.083 12.888C14.7284 11.7239 15.7692 10.8292 17.017 10.366C17.1579 10.3227 17.3046 10.3008 17.452 10.301C17.8498 10.301 18.2314 10.459 18.5127 10.7403C18.794 11.0216 18.952 11.4032 18.952 11.801V12.616C18.9521 12.8243 19.03 13.0251 19.1704 13.179C19.3108 13.3329 19.5036 13.4288 19.711 13.448H19.725C19.8407 13.4586 19.9573 13.4449 20.0674 13.4078C20.1776 13.3707 20.2787 13.3111 20.3645 13.2327C20.4502 13.1543 20.5186 13.0588 20.5654 12.9525C20.6122 12.8461 20.6362 12.7312 20.636 12.615V11.684C20.6359 11.6345 20.6505 11.586 20.678 11.5448C20.7055 11.5037 20.7445 11.4715 20.7903 11.4526C20.836 11.4336 20.8863 11.4287 20.9349 11.4384C20.9834 11.448 21.028 11.4719 21.063 11.507L22.063 12.507C22.2516 12.6891 22.5042 12.7899 22.7664 12.7877C23.0286 12.7854 23.2794 12.6802 23.4648 12.4948C23.6502 12.3094 23.7554 12.0586 23.7577 11.7964C23.76 11.5342 23.6592 11.2816 23.477 11.093L13.384 0.999976C13.2025 0.818091 12.9867 0.673982 12.7491 0.575975C12.5116 0.477968 12.257 0.428006 12 0.428976C11.743 0.427785 11.4883 0.477646 11.2507 0.575665C11.0131 0.673685 10.7974 0.817912 10.616 0.999976L0.523998 11.094C0.34184 11.2826 0.241046 11.5352 0.243324 11.7974C0.245602 12.0596 0.350771 12.3104 0.536179 12.4958C0.721588 12.6812 0.9724 12.7864 1.2346 12.7887C1.49679 12.7909 1.7494 12.6901 1.938 12.508L2.938 11.508C2.9729 11.473 3.0174 11.4491 3.06586 11.4394C3.11432 11.4297 3.16457 11.4346 3.21027 11.4534C3.25596 11.4722 3.29505 11.5042 3.32259 11.5452C3.35013 11.5863 3.36489 11.6346 3.365 11.684V22.57C3.365 22.6985 3.39033 22.8258 3.43954 22.9445C3.48875 23.0632 3.56088 23.1711 3.6518 23.2619C3.74272 23.3527 3.85065 23.4247 3.96943 23.4738C4.0882 23.5229 4.21548 23.5481 4.344 23.548H7.214C7.33185 23.557 7.45027 23.5407 7.56134 23.5003C7.67241 23.4599 7.77358 23.3962 7.8581 23.3136C7.94262 23.231 8.00854 23.1313 8.05146 23.0211C8.09438 22.911 8.11331 22.793 8.107 22.675C8.107 21.019 8.14 20.237 8.192 16.348Z" fill="black"/>
<path d="M9.7 19.873C9.67005 19.8969 9.646 19.9274 9.6297 19.9621C9.6134 19.9967 9.60529 20.0347 9.606 20.073V23.325C9.606 23.3913 9.63234 23.4549 9.67922 23.5018C9.72611 23.5487 9.7897 23.575 9.856 23.575H16.706C16.7453 23.5742 16.7838 23.5641 16.8186 23.5457C16.8533 23.5273 16.8832 23.501 16.906 23.469L17.065 23.242C17.0989 23.1938 17.1147 23.1353 17.1098 23.0766C17.1049 23.0179 17.0794 22.9628 17.038 22.921L12.247 18.129C12.2035 18.0856 12.1455 18.0597 12.0841 18.0562C12.0227 18.0527 11.9622 18.0718 11.914 18.11L9.7 19.873Z" fill="black"/>
<path d="M23.486 17.836C23.486 17.503 23.216 16.936 22.886 16.936H21.676C21.5169 16.936 21.3642 16.8728 21.2517 16.7603C21.1392 16.6477 21.076 16.4951 21.076 16.336V15.736C21.0757 15.416 20.9485 15.1091 20.7222 14.8828C20.4959 14.6565 20.189 14.5293 19.869 14.529H17.7C17.6337 14.529 17.5701 14.5027 17.5232 14.4558C17.4763 14.4089 17.45 14.3453 17.45 14.279V12.183C17.4498 12.14 17.4385 12.0977 17.4174 12.0602C17.3962 12.0228 17.3658 11.9914 17.329 11.969C17.2922 11.9468 17.2503 11.9345 17.2074 11.9333C17.1645 11.932 17.122 11.9419 17.084 11.962C16.3676 12.3844 15.7633 12.9728 15.3219 13.6776C14.8806 14.3825 14.6152 15.1831 14.548 16.012L13.493 16.853C13.4654 16.8748 13.4427 16.9023 13.4265 16.9335C13.4102 16.9648 13.4008 16.9991 13.3988 17.0343C13.3968 17.0694 13.4023 17.1046 13.415 17.1375C13.4276 17.1704 13.447 17.2002 13.472 17.225L17.856 21.61C17.8819 21.6361 17.9132 21.6562 17.9478 21.6686C17.9824 21.6811 18.0194 21.6856 18.056 21.682C18.0919 21.6794 18.1268 21.6691 18.1583 21.6518C18.1899 21.6346 18.2174 21.6108 18.239 21.582L18.601 21.068C18.712 20.9097 18.8596 20.7805 19.0313 20.6916C19.203 20.6026 19.3936 20.5564 19.587 20.557H21.676C21.9138 20.557 22.1492 20.5102 22.3689 20.4191C22.5885 20.3281 22.7881 20.1947 22.9562 20.0265C23.1243 19.8583 23.2576 19.6587 23.3485 19.439C23.4394 19.2193 23.4861 18.9838 23.486 18.746V17.836Z" fill="black"/>
</g>
<defs>
<clipPath id="clip0_370_2218">
<rect width="24" height="24" fill="white"/>
</clipPath>
</defs>
</svg>
