<svg width="24" height="24" viewBox="0 0 24 24" fill="none" xmlns="http://www.w3.org/2000/svg">
<g clip-path="url(#clip0_370_2276)">
<path d="M23.9841 11.837C24.003 11.7838 24.0035 11.7257 23.9854 11.6721C23.9672 11.6186 23.9315 11.5727 23.8841 11.542L21.0001 9.61601V7.75001C21.0001 7.70581 20.9884 7.66239 20.9662 7.62417C20.944 7.58595 20.9121 7.5543 20.8737 7.53245C20.8352 7.51059 20.7917 7.49932 20.7475 7.49977C20.7033 7.50022 20.66 7.51238 20.6221 7.53501L20.4621 7.63501C19.5034 8.09418 18.6626 8.76663 18.0039 9.60087C17.3453 10.4351 16.8863 11.409 16.6621 12.448C16.62 12.6071 16.5262 12.7478 16.3955 12.8479C16.2649 12.948 16.1047 13.0018 15.9401 13.001H8.75006C8.42164 13.0029 8.09765 13.077 7.80106 13.218C7.44056 12.9826 7.02839 12.8379 6.59981 12.7965C6.17123 12.755 5.73899 12.818 5.34006 12.98C4.97993 13.1216 4.65351 13.3372 4.38187 13.6128C4.11023 13.8884 3.89942 14.2179 3.76306 14.58L3.04806 16.486C3.00502 16.5795 2.98169 16.6809 2.97953 16.7838C2.97738 16.8868 2.99644 16.989 3.03552 17.0843C3.07461 17.1795 3.13289 17.2657 3.20672 17.3375C3.28056 17.4092 3.36838 17.465 3.46471 17.5013C3.56104 17.5376 3.66382 17.5537 3.76664 17.5486C3.86947 17.5435 3.97014 17.5173 4.06239 17.4716C4.15463 17.4259 4.23648 17.3616 4.30283 17.2829C4.36918 17.2042 4.41862 17.1127 4.44806 17.014L5.16306 15.107C5.27409 14.8095 5.4935 14.5651 5.77727 14.4226C6.06104 14.2802 6.38818 14.2503 6.69306 14.339C6.56263 14.6251 6.49446 14.9356 6.49306 15.25V16.277C6.49326 16.5489 6.42991 16.817 6.30806 17.06L5.73006 18.216C5.5771 18.5292 5.4984 18.8735 5.50006 19.222V22.75C5.50006 23.0815 5.63175 23.3995 5.86617 23.6339C6.10059 23.8683 6.41854 24 6.75006 24C7.08158 24 7.39952 23.8683 7.63394 23.6339C7.86836 23.3995 8.00006 23.0815 8.00006 22.75V20.578C8.00138 20.1142 8.18574 19.6696 8.51306 19.341L9.00006 18.854V19.324C8.9741 19.658 9.01909 19.9937 9.13206 20.309L10.6321 23.309C10.7861 23.6 11.0463 23.8203 11.3587 23.9243C11.671 24.0282 12.0114 24.0077 12.3091 23.867C12.456 23.7937 12.587 23.6921 12.6946 23.5681C12.8022 23.4442 12.8843 23.3002 12.9363 23.1444C12.9882 22.9887 13.0089 22.8242 12.9972 22.6604C12.9855 22.4967 12.9416 22.3368 12.8681 22.19L11.6001 19.652C11.6741 19.426 11.8251 18.952 11.9071 18.701C11.9233 18.6506 11.9551 18.6066 11.9978 18.5754C12.0406 18.5441 12.0921 18.5272 12.1451 18.527H15.7921C15.8549 18.5271 15.9154 18.5507 15.9615 18.5934C16.0076 18.636 16.036 18.6944 16.0411 18.757L16.3881 22.914C16.4447 23.2325 16.6166 23.5191 16.8709 23.719C17.1253 23.9189 17.4444 24.0182 17.7673 23.998C18.0902 23.9777 18.3943 23.8393 18.6217 23.6091C18.849 23.3789 18.9837 23.0731 19.0001 22.75V22.015C19.0001 18.144 19.0001 17.034 20.8271 13.632C20.8486 13.5922 20.8805 13.5589 20.9194 13.5357C20.9583 13.5124 21.0028 13.5001 21.0481 13.5H22.2481C22.5057 13.5313 22.767 13.4912 23.0035 13.3841C23.2399 13.2771 23.4425 13.1072 23.5891 12.893L23.9841 11.837Z" fill="black"/>
<path d="M3.25 9.5C3.25 9.63261 3.30268 9.75979 3.39645 9.85355C3.49021 9.94732 3.61739 10 3.75 10H6.25C6.38261 10 6.50979 9.94732 6.60355 9.85355C6.69732 9.75979 6.75 9.63261 6.75 9.5V7C6.75 6.9337 6.77634 6.87011 6.82322 6.82322C6.87011 6.77634 6.9337 6.75 7 6.75H9.5C9.63261 6.75 9.75979 6.69732 9.85355 6.60355C9.94732 6.50979 10 6.38261 10 6.25V3.75C10 3.61739 9.94732 3.49021 9.85355 3.39645C9.75979 3.30268 9.63261 3.25 9.5 3.25H7C6.9337 3.25 6.87011 3.22366 6.82322 3.17678C6.77634 3.12989 6.75 3.0663 6.75 3V0.5C6.75 0.367392 6.69732 0.240215 6.60355 0.146447C6.50979 0.0526784 6.38261 0 6.25 0L3.75 0C3.61739 0 3.49021 0.0526784 3.39645 0.146447C3.30268 0.240215 3.25 0.367392 3.25 0.5V3C3.25 3.0663 3.22366 3.12989 3.17678 3.17678C3.12989 3.22366 3.0663 3.25 3 3.25H0.5C0.367392 3.25 0.240215 3.30268 0.146447 3.39645C0.0526784 3.49021 0 3.61739 0 3.75L0 6.25C0 6.38261 0.0526784 6.50979 0.146447 6.60355C0.240215 6.69732 0.367392 6.75 0.5 6.75H3C3.0663 6.75 3.12989 6.77634 3.17678 6.82322C3.22366 6.87011 3.25 6.9337 3.25 7V9.5Z" fill="black"/>
</g>
<defs>
<clipPath id="clip0_370_2276">
<rect width="24" height="24" fill="white"/>
</clipPath>
</defs>
</svg>
